<?xml version="1.0" standalone="yes"?>
<svg xmlns="http://www.w3.org/2000/svg" width="500" height="500">
<path style="fill:#ffffff; stroke:none;" d="M0 0L0 500L500 500L500 0L0 0z"/>
<path style="fill:#b8d4eb; stroke:none;" d="M248 175C250.052 175.874 251.747 175.953 254 176C251.948 175.126 250.253 175.047 248 175z"/>
<path style="fill:#9cc1dd; stroke:none;" d="M245 176L246 177L245 176z"/>
<path style="fill:#0063af; stroke:none;" d="M233 194C236.236 194 240.607 194.74 243.625 193.397C246.569 192.088 248.16 187.873 251.96 188.752C260.436 190.712 253.389 198.19 252.317 202.17C251.498 205.212 252 208.872 252 212C255.179 211.72 258.133 211.167 260.91 209.467C280.229 197.642 261.817 167.043 242.001 178.367C239.541 179.773 237.302 181.639 235.728 184.015C233.754 186.996 233.284 190.529 233 194z"/>
<path style="fill:#5396c8; stroke:none;" d="M256 176L257 177L256 176z"/>
<path style="fill:#c0dbf0; stroke:none;" d="M242 177L243 178L242 177z"/>
<path style="fill:#629cc8; stroke:none;" d="M243 177L244 178L243 177z"/>
<path style="fill:#5094cb; stroke:none;" d="M258 177L259 178L258 177z"/>
<path style="fill:#b9d4e8; stroke:none;" d="M259 177L260 178L259 177z"/>
<path style="fill:#6aa6d0; stroke:none;" d="M241 178L242 179L241 178z"/>
<path style="fill:#6fa6d1; stroke:none;" d="M260 178L261 179L260 178z"/>
<path style="fill:#c3daeb; stroke:none;" d="M262 179L263 180L262 179z"/>
<path style="fill:#aacce5; stroke:none;" d="M238 180L239 181L238 180z"/>
<path style="fill:#a2c6e2; stroke:none;" d="M263 180L264 181L263 180z"/>
<path style="fill:#b9d4ed; stroke:none;" d="M237 181L238 182L237 181z"/>
<path style="fill:#aacbe5; stroke:none;" d="M264 181L265 182L264 181z"/>
<path style="fill:#9ec3e1; stroke:none;" d="M236 182L237 183L236 182z"/>
<path style="fill:#adcce5; stroke:none;" d="M265 182L266 183L265 182z"/>
<path style="fill:#abcbe4; stroke:none;" d="M234 185L235 186L234 185z"/>
<path style="fill:#67a3d4; stroke:none;" d="M267 186L268 187L267 186z"/>
<path style="fill:#bfdaf1; stroke:none;" d="M233 187L234 188L233 187z"/>
<path style="fill:#418ec4; stroke:none;" d="M233.333 188.667C233.278 188.722 233.222 189.778 233.667 189.333C233.722 189.278 233.778 188.222 233.333 188.667z"/>
<path style="fill:#408ac6; stroke:none;" d="M248 188L249 189L248 188z"/>
<path style="fill:#deeaf2; stroke:none;" d="M249 188C250.248 188.685 250.548 188.749 252 189C250.752 188.315 250.452 188.251 249 188z"/>
<path style="fill:#88b8d4; stroke:none;" d="M252 188L253 189L252 188z"/>
<path style="fill:#4089c0; stroke:none;" d="M253 188L254 189L253 188z"/>
<path style="fill:#8db4d8; stroke:none;" d="M268 188L269 189L268 188z"/>
<path style="fill:#accce5; stroke:none;" d="M254 189L255 190L254 189z"/>
<path style="fill:#b6d2e7; stroke:none;" d="M246 190L247 191L246 190z"/>
<path style="fill:#f8ca7f; stroke:none;" d="M232 231C232 227.75 232.726 223.415 231.4 220.375C230.114 217.425 226.086 215.777 226.832 212.015C227.292 209.693 229.611 207.652 232.001 207.635C234.886 207.615 236.83 210.345 239.285 211.441C242.824 213.02 247.203 212.969 251 213C250.419 209.121 249.275 205.328 247.031 202.043C234.214 183.284 204.717 203.452 216.995 222.996C218.513 225.413 220.554 227.512 223.004 228.991C225.839 230.702 228.783 230.924 232 231z"/>
<path style="fill:#fcdfad; stroke:none;" d="M236.667 195.333C236.222 195.778 237.278 195.722 237.333 195.667C237.778 195.222 236.722 195.278 236.667 195.333z"/>
<path style="fill:#f1743c; stroke:none;" d="M270 195C270 198.25 269.274 202.585 270.6 205.625C271.898 208.604 275.837 210.18 275.029 213.985C273.123 222.96 265.763 215.406 261.791 214.314C258.482 213.404 254.41 214 251 214C252.104 217.806 253.197 221.593 255.789 224.699C257.469 226.711 259.64 228.42 262.004 229.558C281.489 238.938 298.388 209.614 279.985 197.843C276.979 195.921 273.478 195.304 270 195z"/>
<path style="fill:#f8c0aa; stroke:none;" d="M274.667 195.333C274.222 195.778 275.278 195.722 275.333 195.667C275.778 195.222 274.722 195.278 274.667 195.333z"/>
<path style="fill:#599bcc; stroke:none;" d="M256 196L257 197L256 196z"/>
<path style="fill:#f6a884; stroke:none;" d="M277 196L278 197L277 196z"/>
<path style="fill:#5b95c4; stroke:none;" d="M268.333 198.667C268.278 198.722 268.222 199.778 268.667 199.333C268.722 199.278 268.778 198.222 268.333 198.667z"/>
<path style="fill:#99c0df; stroke:none;" d="M253 199L254 200L253 199z"/>
<path style="fill:#3183c0; stroke:none;" d="M251 200L251 212C252.512 208.396 252.512 203.604 251 200z"/>
<path style="fill:#a9cae4; stroke:none;" d="M267 202L268 203L267 202z"/>
<path style="fill:#fbcebd; stroke:none;" d="M285 203L286 204L285 203z"/>
<path style="fill:#85aed3; stroke:none;" d="M265 205L266 206L265 205z"/>
<path style="fill:#f89264; stroke:none;" d="M286.333 205.667C286.278 205.722 286.222 206.778 286.667 206.333C286.722 206.278 286.778 205.222 286.333 205.667z"/>
<path style="fill:#5f9aca; stroke:none;" d="M264 206L265 207L264 206z"/>
<path style="fill:#ffffff; stroke:none;" d="M232 229C236.688 222.032 239.122 216.244 248 214C244.837 212.673 241.414 213 238 213C236.415 207.538 228.094 204.236 227.167 212.015C226.649 216.372 229.97 217.698 231.401 221.209C232.361 223.564 231.998 226.512 232 229z"/>
<path style="fill:#f6c8bb; stroke:none;" d="M271 207L272 208L271 207z"/>
<path style="fill:#8bb6d7; stroke:none;" d="M262 208L263 209L262 208z"/>
<path style="fill:#fabfa7; stroke:none;" d="M273 208L274 209L273 208z"/>
<path style="fill:#ecac8e; stroke:none;" d="M287 208L288 209L287 208z"/>
<path style="fill:#fceed7; stroke:none;" d="M226 210L226 215C226.83 212.97 226.83 212.03 226 210z"/>
<path style="fill:#94b8d5; stroke:none;" d="M259 210L260 211L259 210z"/>
<path style="fill:#629ccc; stroke:none;" d="M256 211L257 212L256 211z"/>
<path style="fill:#aac9e0; stroke:none;" d="M257 211L258 212L257 211z"/>
<path style="fill:#f7d0bd; stroke:none;" d="M275 211L275 215C275.71 213.24 275.71 212.759 275 211z"/>
<path style="fill:#fde1c1; stroke:none;" d="M238 212C240.052 212.874 241.747 212.953 244 213C241.948 212.126 240.253 212.047 238 212z"/>
<path style="fill:#a9c8e3; stroke:none;" d="M251.667 212.333C251.222 212.778 252.278 212.722 252.333 212.667C252.778 212.222 251.722 212.278 251.667 212.333z"/>
<path style="fill:#87cb9f; stroke:none;" d="M248 213C250.313 217.159 250 221.354 250 226C251.661 222.041 251 217.263 251 213L248 213z"/>
<path style="fill:#fac9b0; stroke:none;" d="M251 213L252 214L251 213z"/>
<path style="fill:#f59972; stroke:none;" d="M252 213C255.432 214.44 259.3 214 263 214C259.568 212.56 255.7 213 252 213z"/>
<path style="fill:#f7c3ae; stroke:none;" d="M263 213L264 214L263 213z"/>
<path style="fill:#67be87; stroke:none;" d="M269 232C265.75 232 261.415 231.274 258.375 232.6C255.425 233.886 253.777 237.914 250.015 237.168C241.323 235.445 248.625 227.757 249.683 223.83C250.503 220.788 250 217.128 250 214C246.734 214.17 243.909 214.683 241.09 216.483C221.428 229.042 241.417 260.328 260.995 247.146C263.03 245.776 264.835 244.061 266.157 241.985C268.074 238.973 268.696 235.483 269 232z"/>
<path style="fill:#b9e5cc; stroke:none;" d="M242 215L243 216L242 215z"/>
<path style="fill:#fba581; stroke:none;" d="M251 215L252 216L251 215z"/>
<path style="fill:#f9d2bd; stroke:none;" d="M251 216L252 217L251 216z"/>
<path style="fill:#b6dfc5; stroke:none;" d="M239 217L240 218L239 217z"/>
<path style="fill:#ffffff; stroke:none;" d="M251 217L251 226C245.698 227.574 242.463 235.911 250.04 236.833C253.993 237.313 255.351 234.711 258.375 233.008C260.657 231.723 263.477 232.009 266 232C259.37 227.396 255.52 223.679 251 217z"/>
<path style="fill:#f5a284; stroke:none;" d="M265 217L266 218L265 217z"/>
<path style="fill:#facbb0; stroke:none;" d="M267 218L268 219L267 218z"/>
<path style="fill:#f1b29c; stroke:none;" d="M272 218L273 219L272 218z"/>
<path style="fill:#acdabc; stroke:none;" d="M237 219L238 220L237 219z"/>
<path style="fill:#f7c4b0; stroke:none;" d="M252 219L253 220L252 219z"/>
<path style="fill:#c6e4d0; stroke:none;" d="M236 220L237 221L236 220z"/>
<path style="fill:#f7b79e; stroke:none;" d="M286 220L287 221L286 220z"/>
<path style="fill:#fbbda4; stroke:none;" d="M253 221L254 222L253 221z"/>
<path style="fill:#fad2c1; stroke:none;" d="M254 223L255 224L254 223z"/>
<path style="fill:#f7a682; stroke:none;" d="M255 224L256 225L255 224z"/>
<path style="fill:#91cea9; stroke:none;" d="M233.333 226.667C233.278 226.722 233.222 227.778 233.667 227.333C233.722 227.278 233.778 226.222 233.333 226.667z"/>
<path style="fill:#eda07f; stroke:none;" d="M257 226L258 227L257 226z"/>
<path style="fill:#f7a988; stroke:none;" d="M258 227L259 228L258 227z"/>
<path style="fill:#f3aa8e; stroke:none;" d="M279 228L280 229L279 228z"/>
<path style="fill:#d5e9d2; stroke:none;" d="M232 229L232 233C232.71 231.24 232.71 230.76 232 229z"/>
<path style="fill:#b9dfc8; stroke:none;" d="M245 229L246 230L245 229z"/>
<path style="fill:#f7c1aa; stroke:none;" d="M261 229L262 230L261 229z"/>
<path style="fill:#f5af8f; stroke:none;" d="M277 229L278 230L277 229z"/>
<path style="fill:#f6c4ad; stroke:none;" d="M263 230L264 231L263 230z"/>
<path style="fill:#f8c0a9; stroke:none;" d="M275 230L276 231L275 230z"/>
<path style="fill:#facebc; stroke:none;" d="M266 231C267.769 231.779 269.036 231.912 271 232C269.231 231.221 267.964 231.088 266 231z"/>
<path style="fill:#9dd5b5; stroke:none;" d="M245 234L246 235L245 234z"/>
<path style="fill:#a8d7be; stroke:none;" d="M268.333 236.667C268.278 236.722 268.222 237.778 268.667 237.333C268.722 237.278 268.778 236.222 268.333 236.667z"/>
<path style="fill:#b6e0c5; stroke:none;" d="M233 237L234 238L233 237z"/>
<path style="fill:#e4f3ea; stroke:none;" d="M248 237C249.769 237.779 251.036 237.912 253 238C251.231 237.221 249.964 237.088 248 237z"/>
<path style="fill:#a6d7ba; stroke:none;" d="M234 239L235 240L234 239z"/>
<path style="fill:#a2d8b6; stroke:none;" d="M267 239L268 240L267 239z"/>
<path style="fill:#c1e3d0; stroke:none;" d="M238 245L239 246L238 245z"/>
<path style="fill:#bbe2cc; stroke:none;" d="M263 245L264 246L263 245z"/>
<path style="fill:#b0dbbf; stroke:none;" d="M241 247L242 248L241 247z"/>
<path style="fill:#a5d8b9; stroke:none;" d="M260 247L261 248L260 247z"/>
<path style="fill:#c0e4cf; stroke:none;" d="M249 250C250.769 250.779 252.036 250.912 254 251C252.231 250.221 250.964 250.088 249 250z"/>
<path style="fill:#969696; stroke:none;" d="M265.667 259.333C265.222 259.778 266.278 259.722 266.333 259.667C266.778 259.222 265.722 259.278 265.667 259.333z"/>
<path style="fill:#b2b2b2; stroke:none;" d="M149.667 260.333C149.222 260.778 150.278 260.722 150.333 260.667C150.778 260.222 149.722 260.278 149.667 260.333z"/>
<path style="fill:#4a4a4a; stroke:none;" d="M264 260L264 264C264.71 262.24 264.71 261.76 264 260z"/>
<path style="fill:#333333; stroke:none;" d="M265 260C263.706 270.235 264.993 279.786 265 290C267.658 289.136 268.948 287.357 271.325 286.004C273.34 284.857 275.867 284.948 277.682 283.397C281.59 280.06 279.779 275.084 276 273C278.292 278.733 276.473 281.533 271 284L271 274C276.047 272.457 278.967 268.23 278 263C275.936 266.23 274.137 268.72 271 271C270.754 266.215 269.952 261.599 265 260z"/>
<path style="fill:#bebebe; stroke:none;" d="M268 260L269 261L268 260M147 261L148 262L147 261z"/>
<path style="fill:#333333; stroke:none;" d="M151 289C142.824 281.51 149.357 271.578 152 263L154 264C155.525 259.9 148.205 261.178 146.222 263.111C141.904 267.32 136.678 281.397 141.333 286.75C143.705 289.477 147.758 289 151 289z"/>
<path style="fill:#a9a9a9; stroke:none;" d="M153 261L154 262L153 261z"/>
<path style="fill:#d5d5d5; stroke:none;" d="M274 261C275.248 261.685 275.548 261.749 277 262C275.752 261.315 275.452 261.251 274 261z"/>
<path style="fill:#c3c3c3; stroke:none;" d="M146 262L147 263L146 262z"/>
<path style="fill:#343434; stroke:none;" d="M272 262C273.769 262.779 275.036 262.912 277 263C275.231 262.221 273.964 262.088 272 262z"/>
<path style="fill:#868686; stroke:none;" d="M277 262L278 263L277 262z"/>
<path style="fill:#d1d1d1; stroke:none;" d="M314.667 262.333C314.222 262.778 315.278 262.722 315.333 262.667C315.778 262.222 314.722 262.278 314.667 262.333z"/>
<path style="fill:#787878; stroke:none;" d="M152.667 263.333C152.222 263.778 153.278 263.722 153.333 263.667C153.778 263.222 152.722 263.278 152.667 263.333z"/>
<path style="fill:#7c7c7c; stroke:none;" d="M155 263C154.519 265.201 154.519 265.799 155 268C155.83 265.969 155.83 265.031 155 263z"/>
<path style="fill:#606060; stroke:none;" d="M269 263L270 266C271.015 264.861 271.309 264.388 272 263L269 263z"/>
<path style="fill:#b5b5b5; stroke:none;" d="M272 263L273 264L272 263z"/>
<path style="fill:#ffffff; stroke:none;" d="M272 270C274.447 268.164 275.701 266.763 277 264C272.147 263.076 270.779 265.473 272 270z"/>
<path style="fill:#b3b3b3; stroke:none;" d="M276 263L277 264L276 263z"/>
<path style="fill:#7e7e7e; stroke:none;" d="M278 263L279 264L278 263z"/>
<path style="fill:#acacac; stroke:none;" d="M312 263L313 264L312 263z"/>
<path style="fill:#333333; stroke:none;" d="M313 263C312.925 272.058 311 280.892 311 290C313.338 287.853 314.201 286.076 315 283L321 286C319.651 283.068 318.61 281.189 319 278C316.858 272.513 320.538 264.258 313 263z"/>
<path style="fill:#777777; stroke:none;" d="M317 263L318 264L317 263z"/>
<path style="fill:#cdcdcd; stroke:none;" d="M263 264L263 271C264.059 268.466 264.059 266.534 263 264z"/>
<path style="fill:#757575; stroke:none;" d="M312 264L312 269C312.83 266.97 312.83 266.03 312 264z"/>
<path style="fill:#6a6a6a; stroke:none;" d="M318 264L318 271C319.059 268.466 319.059 266.534 318 264z"/>
<path style="fill:#838383; stroke:none;" d="M144 265L145 266L144 265z"/>
<path style="fill:#cecece; stroke:none;" d="M151 265L152 266L151 265z"/>
<path style="fill:#d4d4d4; stroke:none;" d="M143 266L144 267L143 266z"/>
<path style="fill:#989898; stroke:none;" d="M276 266L277 267L276 266z"/>
<path style="fill:#c8c8c8; stroke:none;" d="M150 267L151 268L150 267z"/>
<path style="fill:#313131; stroke:none;" d="M154.333 267.667C154.278 267.722 154.222 268.778 154.667 268.333C154.722 268.278 154.778 267.222 154.333 267.667z"/>
<path style="fill:#c3c3c3; stroke:none;" d="M275 267L276 268L275 267z"/>
<path style="fill:#868686; stroke:none;" d="M278 267L279 268L278 267z"/>
<path style="fill:#333333; stroke:none;" d="M326 267L326 273L330 273C329.737 269.59 329.321 268.099 326 267z"/>
<path style="fill:#c2c2c2; stroke:none;" d="M142 268L143 269L142 268z"/>
<path style="fill:#696969; stroke:none;" d="M149 268L150 269L149 268z"/>
<path style="fill:#a5a5a5; stroke:none;" d="M153 268L154 269L153 268z"/>
<path style="fill:#656565; stroke:none;" d="M252 268L253 269L252 268z"/>
<path style="fill:#333333; stroke:none;" d="M258 290C254.96 284.424 258.742 279.852 258.103 274.005C257.837 271.571 254.454 266.77 252.117 270.377C250.811 272.393 251.868 275.773 251.961 278C252.205 283.843 250.717 289.433 258 290z"/>
<path style="fill:#7f7f7f; stroke:none;" d="M255 268L256 269L255 268z"/>
<path style="fill:#c5c5c5; stroke:none;" d="M274 268L275 269L274 268z"/>
<path style="fill:#b6b6b6; stroke:none;" d="M325 268L325 272C325.71 270.24 325.71 269.759 325 268z"/>
<path style="fill:#6f6f6f; stroke:none;" d="M142 269L143 270L142 269z"/>
<path style="fill:#b7b7b7; stroke:none;" d="M149 269L150 270L149 269z"/>
<path style="fill:#414141; stroke:none;" d="M153 269L154 270L153 269z"/>
<path style="fill:#a7a7a7; stroke:none;" d="M154 269L155 270L154 269z"/>
<path style="fill:#909090; stroke:none;" d="M251 269L252 270L251 269z"/>
<path style="fill:#626262; stroke:none;" d="M256 269L257 270L256 269z"/>
<path style="fill:#9e9e9e; stroke:none;" d="M271 269L272 270L271 269z"/>
<path style="fill:#9a9a9a; stroke:none;" d="M273 269L274 270L273 269z"/>
<path style="fill:#cacaca; stroke:none;" d="M277 269L278 270L277 269z"/>
<path style="fill:#545454; stroke:none;" d="M312.333 269.667C312.278 269.722 312.222 270.778 312.667 270.333C312.722 270.278 312.778 269.222 312.333 269.667z"/>
<path style="fill:#bbbbbb; stroke:none;" d="M330 269L330 273C330.71 271.24 330.71 270.759 330 269z"/>
<path style="fill:#8d8d8d; stroke:none;" d="M153 270L154 271L153 270z"/>
<path style="fill:#c2c2c2; stroke:none;" d="M208 270L209 271L208 270z"/>
<path style="fill:#979797; stroke:none;" d="M209 270L210 271L209 270z"/>
<path style="fill:#9e9e9e; stroke:none;" d="M257 270L258 271L257 270z"/>
<path style="fill:#5a5a5a; stroke:none;" d="M271.667 270.333C271.222 270.778 272.278 270.722 272.333 270.667C272.778 270.222 271.722 270.278 271.667 270.333z"/>
<path style="fill:#b8b8b8; stroke:none;" d="M276 270L277 271L276 270z"/>
<path style="fill:#a1a1a1; stroke:none;" d="M283.667 270.333C283.222 270.778 284.278 270.722 284.333 270.667C284.778 270.222 283.722 270.278 283.667 270.333z"/>
<path style="fill:#848484; stroke:none;" d="M141 271L142 272L141 271z"/>
<path style="fill:#7b7b7b; stroke:none;" d="M174.667 271.333C174.222 271.778 175.278 271.722 175.333 271.667C175.778 271.222 174.722 271.278 174.667 271.333z"/>
<path style="fill:#bdbdbd; stroke:none;" d="M176 271L177 272L176 271z"/>
<path style="fill:#afafaf; stroke:none;" d="M206 271L207 272L206 271z"/>
<path style="fill:#333333; stroke:none;" d="M206 272C206.338 278.451 204.314 285.77 212 288C211.657 281.923 216.268 269.498 206 272z"/>
<path style="fill:#626262; stroke:none;" d="M211.667 271.333C211.222 271.778 212.278 271.722 212.333 271.667C212.778 271.222 211.722 271.278 211.667 271.333z"/>
<path style="fill:#aaaaaa; stroke:none;" d="M213 271L214 272L213 271z"/>
<path style="fill:#7d7d7d; stroke:none;" d="M248 271C249.248 271.685 249.549 271.749 251 272C249.752 271.315 249.452 271.251 248 271z"/>
<path style="fill:#747474; stroke:none;" d="M258 271L259 272L258 271z"/>
<path style="fill:#343434; stroke:none;" d="M259 271C260.506 271.683 261.315 271.826 263 272C261.494 271.317 260.685 271.174 259 271z"/>
<path style="fill:#989898; stroke:none;" d="M263 271L264 272L263 271z"/>
<path style="fill:#a0a0a0; stroke:none;" d="M275.333 271.667C275.278 271.722 275.222 272.778 275.667 272.333C275.722 272.278 275.778 271.222 275.333 271.667z"/>
<path style="fill:#aaaaaa; stroke:none;" d="M281 271L280 277C281.654 274.823 281.994 273.575 281 271z"/>
<path style="fill:#333333; stroke:none;" d="M282 271C281.982 277.389 279.218 285.658 287 288C286.46 282.52 288.302 277.406 289 272L282 271z"/>
<path style="fill:#5e5e5e; stroke:none;" d="M286.667 271.333C286.222 271.778 287.278 271.722 287.333 271.667C287.778 271.222 286.722 271.278 286.667 271.333z"/>
<path style="fill:#a4a4a4; stroke:none;" d="M288 271L289 272L288 271z"/>
<path style="fill:#a6a6a6; stroke:none;" d="M318 271L319 272L318 271z"/>
<path style="fill:#cdcdcd; stroke:none;" d="M148 272L149 273L148 272z"/>
<path style="fill:#888888; stroke:none;" d="M173 272L174 273L173 272z"/>
<path style="fill:#333333; stroke:none;" d="M172 283C169.962 281.605 168.373 280.651 166 280C164.079 268.498 151.082 284.613 159.225 288.397C160.952 289.199 163.155 288.978 165 289C163.752 288.315 163.452 288.251 162 288L164 284C166.969 284.819 168.998 284.696 172 284C173.376 290.421 178.682 284.28 180 281C182.814 283.459 184.353 283.77 188 283C187.29 286.058 187.331 287.268 190 289L190 280L183 283L184 279L183 278L179 279C178.851 277.043 177.309 270.111 174.008 273.662C172.091 275.725 172.209 280.361 172 283z"/>
<path style="fill:#a4a4a4; stroke:none;" d="M177 272L178 273L177 272z"/>
<path style="fill:#dddddd; stroke:none;" d="M192.667 272.333C192.222 272.778 193.278 272.722 193.333 272.667C193.778 272.222 192.722 272.278 192.667 272.333z"/>
<path style="fill:#494949; stroke:none;" d="M213 272L213 276C213.71 274.24 213.71 273.759 213 272z"/>
<path style="fill:#5f5f5f; stroke:none;" d="M243.667 272.333C243.222 272.778 244.278 272.722 244.333 272.667C244.778 272.222 243.722 272.278 243.667 272.333z"/>
<path style="fill:#ababab; stroke:none;" d="M248 272C249.248 272.685 249.549 272.749 251 273C249.752 272.315 249.452 272.251 248 272z"/>
<path style="fill:#606060; stroke:none;" d="M259 272L260 273L259 272z"/>
<path style="fill:#989898; stroke:none;" d="M260 272L261 273L260 272z"/>
<path style="fill:#c5c5c5; stroke:none;" d="M263 272L263 280C264.161 277.23 264.161 274.77 263 272z"/>
<path style="fill:#e5e5e5; stroke:none;" d="M276.667 272.333C276.222 272.778 277.278 272.722 277.333 272.667C277.778 272.222 276.722 272.278 276.667 272.333z"/>
<path style="fill:#333333; stroke:none;" d="M298 272C298 277.345 299.058 283.026 295 287C295.802 283.632 295.99 280.455 296 277C285.926 280.418 293.31 293.205 301.443 287.948C304.802 285.776 306.954 279.402 309 276L304 278C302.887 274.37 301.83 272.658 298 272z"/>
<path style="fill:#e6e6e6; stroke:none;" d="M356.667 272.333C356.222 272.778 357.278 272.722 357.333 272.667C357.778 272.222 356.722 272.278 356.667 272.333z"/>
<path style="fill:#b5b5b5; stroke:none;" d="M178 273L179 274L178 273z"/>
<path style="fill:#747474; stroke:none;" d="M191 273L191 287C192.667 283.028 192.667 276.972 191 273z"/>
<path style="fill:#333333; stroke:none;" d="M192 273C192 277.682 192.195 282.37 191.385 287C190.937 289.562 189.537 293.138 190.642 295.677C191.96 298.704 195.056 297.047 196.121 294.851C198.247 290.466 198.615 284.779 199 280L201 280L202 281L200 285C207.359 280.916 196.881 274.014 192 273z"/>
<path style="fill:#8b8b8b; stroke:none;" d="M195 273L196 274L195 273z"/>
<path style="fill:#7c7c7c; stroke:none;" d="M206.333 273.667C206.278 273.722 206.222 274.778 206.667 274.333C206.722 274.278 206.778 273.222 206.333 273.667z"/>
<path style="fill:#b5b5b5; stroke:none;" d="M242 273L243 274L242 273z"/>
<path style="fill:#323232; stroke:none;" d="M249 285L244 288C244.714 284.441 249.435 279.726 248.288 276.215C245.845 268.74 239.605 278.628 239.232 281.999C238.456 289.031 245.829 290.75 249 285z"/>
<path style="fill:#777777; stroke:none;" d="M246 273L247 274L246 273z"/>
<path style="fill:#505050; stroke:none;" d="M251 273L251 288C252.74 283.852 252.74 277.148 251 273z"/>
<path style="fill:#5f5f5f; stroke:none;" d="M274.667 273.333C274.222 273.778 275.278 273.722 275.333 273.667C275.778 273.222 274.722 273.278 274.667 273.333z"/>
<path style="fill:#767676; stroke:none;" d="M278 273L279 274L278 273z"/>
<path style="fill:#6b6b6b; stroke:none;" d="M302 273L303 274L302 273z"/>
<path style="fill:#d0d0d0; stroke:none;" d="M327 275L330 274C328.222 273.045 327.979 273.234 327 275z"/>
<path style="fill:#cbcbcb; stroke:none;" d="M354 273L355 274L354 273z"/>
<path style="fill:#333333; stroke:none;" d="M344 288L345 279C342.511 279.777 340.328 280.817 338 282C337.699 278.048 336.882 276.178 333 275C332.32 278.597 331.75 281.772 330 285C334.364 290.157 338.455 287.392 341 282C341.722 284.418 341.948 286.472 342 289C347.205 288.697 352.223 289.286 357 287C358.539 289.179 359.355 289.573 362 290C360.752 289.315 360.452 289.251 359 289L360 281C356.776 282.496 354.553 284.52 352 287C353.844 283.944 357.469 281.291 358.677 277.98C360.571 272.785 354.542 273.893 352.189 276.153C348.514 279.681 347.942 284.73 344 288z"/>
<path style="fill:#7e7e7e; stroke:none;" d="M358 273L359 274L358 273z"/>
<path style="fill:#c1c1c1; stroke:none;" d="M140 274L141 275L140 274z"/>
<path style="fill:#838383; stroke:none;" d="M147 274L147 278C147.71 276.24 147.71 275.759 147 274z"/>
<path style="fill:#a4a4a4; stroke:none;" d="M162 274C163.248 274.685 163.548 274.749 165 275C163.752 274.315 163.452 274.251 162 274z"/>
<path style="fill:#bfbfbf; stroke:none;" d="M197 274L198 275L197 274M225.667 274.333C225.222 274.778 226.278 274.722 226.333 274.667C226.778 274.222 225.722 274.278 225.667 274.333z"/>
<path style="fill:#bdbdbd; stroke:none;" d="M248 274L249 275L248 274z"/>
<path style="fill:#5c5c5c; stroke:none;" d="M271.333 274.667C271.278 274.722 271.222 275.778 271.667 275.333C271.722 275.278 271.778 274.222 271.333 274.667z"/>
<path style="fill:#ffffff; stroke:none;" d="M272 274L271 283C277.494 281.657 280.214 274.64 272 274z"/>
<path style="fill:#6a6a6a; stroke:none;" d="M279 274L280 275L279 274z"/>
<path style="fill:#919191; stroke:none;" d="M324 274C325.248 274.685 325.548 274.749 327 275C325.752 274.315 325.452 274.251 324 274z"/>
<path style="fill:#afafaf; stroke:none;" d="M333 274C334.248 274.685 334.548 274.749 336 275C334.752 274.315 334.452 274.251 333 274z"/>
<path style="fill:#b1b1b1; stroke:none;" d="M353 274L354 275L353 274z"/>
<path style="fill:#929292; stroke:none;" d="M359 274L360 275L359 274z"/>
<path style="fill:#686868; stroke:none;" d="M140 275L141 276L140 275z"/>
<path style="fill:#a9a9a9; stroke:none;" d="M160 275L161 276L160 275z"/>
<path style="fill:#858585; stroke:none;" d="M165 275L166 276L165 275z"/>
<path style="fill:#acacac; stroke:none;" d="M179.333 275.667C179.278 275.722 179.222 276.778 179.667 276.333C179.722 276.278 179.778 275.222 179.333 275.667z"/>
<path style="fill:#333333; stroke:none;" d="M224 275C223.844 278.634 220.355 290.597 227.821 287.624C228.751 287.254 229.527 286.386 230.231 285.714C231.523 284.479 232.659 283.187 234 282C233.388 285.948 233.374 288.709 238 288C236.672 287.727 236.423 287.784 235 288C235.562 284.975 235.936 282.078 236 279C233.511 279.777 231.328 280.817 229 282C228.776 277.948 228.235 275.735 224 275z"/>
<path style="fill:#919191; stroke:none;" d="M241 275L242 276L241 275z"/>
<path style="fill:#8c8c8c; stroke:none;" d="M246 275L247 276L246 275z"/>
<path style="fill:#6f6f6f; stroke:none;" d="M288 275L289 276L288 275z"/>
<path style="fill:#999999; stroke:none;" d="M303 275L304 276L303 275z"/>
<path style="fill:#c4c4c4; stroke:none;" d="M308 275L309 276L308 275z"/>
<path style="fill:#434343; stroke:none;" d="M309 275L310 276L309 275z"/>
<path style="fill:#b3b3b3; stroke:none;" d="M311 275L311 278C311.696 276.446 311.696 276.554 311 275z"/>
<path style="fill:#9d9d9d; stroke:none;" d="M317.333 275.667C317.278 275.722 317.222 276.778 317.667 276.333C317.722 276.278 317.778 275.222 317.333 275.667z"/>
<path style="fill:#a5a5a5; stroke:none;" d="M320 275L321 276L320 275z"/>
<path style="fill:#676767; stroke:none;" d="M321 275L322 276L321 275z"/>
<path style="fill:#323232; stroke:none;" d="M324 275L323 289C324.878 288.824 326.199 288.562 328 288C327.962 282.44 331.532 276.233 324 275z"/>
<path style="fill:#9a9a9a; stroke:none;" d="M328 275L329 276L328 275z"/>
<path style="fill:#6c6c6c; stroke:none;" d="M336 275L337 276L336 275z"/>
<path style="fill:#a7a7a7; stroke:none;" d="M352 275L353 276L352 275z"/>
<path style="fill:#dedede; stroke:none;" d="M360.333 275.667C360.278 275.722 360.222 276.778 360.667 276.333C360.722 276.278 360.778 275.222 360.333 275.667z"/>
<path style="fill:#c4c4c4; stroke:none;" d="M159 276L160 277L159 276z"/>
<path style="fill:#cbcbcb; stroke:none;" d="M166 276L167 277L166 276z"/>
<path style="fill:#cdcdcd; stroke:none;" d="M172.333 276.667C172.278 276.722 172.222 277.778 172.667 277.333C172.722 277.278 172.778 276.222 172.333 276.667z"/>
<path style="fill:#b0b0b0; stroke:none;" d="M213 276L214 277L213 276M218 276L219 277L218 276z"/>
<path style="fill:#727272; stroke:none;" d="M219 276L220 277L219 276z"/>
<path style="fill:#d3d3d3; stroke:none;" d="M220 276L221 277L220 276z"/>
<path style="fill:#a0a0a0; stroke:none;" d="M223 276L223 279C223.696 277.446 223.696 277.554 223 276z"/>
<path style="fill:#747474; stroke:none;" d="M228 276L229 277L228 276z"/>
<path style="fill:#e2e2e2; stroke:none;" d="M246 276L246 279C246.696 277.446 246.696 277.554 246 276z"/>
<path style="fill:#919191; stroke:none;" d="M247.333 276.667C247.278 276.722 247.222 277.778 247.667 277.333C247.722 277.278 247.778 276.222 247.333 276.667z"/>
<path style="fill:#bfbfbf; stroke:none;" d="M249.333 276.667C249.278 276.722 249.222 277.778 249.667 277.333C249.722 277.278 249.778 276.222 249.333 276.667z"/>
<path style="fill:#a0a0a0; stroke:none;" d="M271.333 276.667C271.278 276.722 271.222 277.778 271.667 277.333C271.722 277.278 271.778 276.222 271.333 276.667z"/>
<path style="fill:#929292; stroke:none;" d="M281.333 276.667C281.278 276.722 281.222 277.778 281.667 277.333C281.722 277.278 281.778 276.222 281.333 276.667z"/>
<path style="fill:#d3d3d3; stroke:none;" d="M288.333 276.667C288.278 276.722 288.222 277.778 288.667 277.333C288.722 277.278 288.778 276.222 288.333 276.667z"/>
<path style="fill:#7b7b7b; stroke:none;" d="M293.667 276.333C293.222 276.778 294.278 276.722 294.333 276.667C294.778 276.222 293.722 276.278 293.667 276.333z"/>
<path style="fill:#c7c7c7; stroke:none;" d="M295 276L296 277L295 276z"/>
<path style="fill:#bdbdbd; stroke:none;" d="M297 276L297 286C298.346 282.793 298.346 279.207 297 276z"/>
<path style="fill:#999999; stroke:none;" d="M306 276L307 277L306 276z"/>
<path style="fill:#ababab; stroke:none;" d="M309 276L310 277L309 276z"/>
<path style="fill:#d3d3d3; stroke:none;" d="M318 276L319 277L318 276z"/>
<path style="fill:#5c5c5c; stroke:none;" d="M319 276L319 278C320.635 277.455 320.455 277.635 321 276L319 276z"/>
<path style="fill:#a8a8a8; stroke:none;" d="M332 276L333 277L332 276z"/>
<path style="fill:#838383; stroke:none;" d="M337 276L338 277L337 276z"/>
<path style="fill:#898989; stroke:none;" d="M351 276L352 277L351 276z"/>
<path style="fill:#9a9a9a; stroke:none;" d="M166 277L166 280C166.696 278.446 166.696 278.554 166 277z"/>
<path style="fill:#cdcdcd; stroke:none;" d="M217 277L218 278L217 277z"/>
<path style="fill:#323232; stroke:none;" d="M218 277C216.682 279.327 215.739 281.432 215 284C217.421 286.67 218.174 288.586 222 288C220.224 284.446 221.038 280.763 220 277L218 277z"/>
<path style="fill:#707070; stroke:none;" d="M220 277L221 278L220 277z"/>
<path style="fill:#919191; stroke:none;" d="M240 277L241 278L240 277z"/>
<path style="fill:#707070; stroke:none;" d="M280 277C280.684 278.58 280.805 278.777 282 280C281.316 278.42 281.195 278.223 280 277z"/>
<path style="fill:#c7c7c7; stroke:none;" d="M304 277L305 278L304 277z"/>
<path style="fill:#868686; stroke:none;" d="M305 277L306 278L305 277z"/>
<path style="fill:#9f9f9f; stroke:none;" d="M308 277L309 278L308 277z"/>
<path style="fill:#ababab; stroke:none;" d="M323 277L323 280C323.696 278.446 323.696 278.554 323 277z"/>
<path style="fill:#757575; stroke:none;" d="M329 277L330 278L329 277z"/>
<path style="fill:#6d6d6d; stroke:none;" d="M332 277L333 278L332 277z"/>
<path style="fill:#b4b4b4; stroke:none;" d="M350 277L351 278L350 277z"/>
<path style="fill:#747474; stroke:none;" d="M359 277L360 278L359 277z"/>
<path style="fill:#989898; stroke:none;" d="M139 278L139 284C139.951 281.715 139.951 280.285 139 278z"/>
<path style="fill:#dddddd; stroke:none;" d="M147 278L147 281C147.696 279.446 147.696 279.554 147 278z"/>
<path style="fill:#939393; stroke:none;" d="M158 278L159 279L158 278z"/>
<path style="fill:#969696; stroke:none;" d="M172 278L173 279L172 278z"/>
<path style="fill:#a6a6a6; stroke:none;" d="M180 278L181 279L180 278z"/>
<path style="fill:#c7c7c7; stroke:none;" d="M183 278L184 279L183 278z"/>
<path style="fill:#9a9a9a; stroke:none;" d="M199 278L200 279L199 278z"/>
<path style="fill:#6f6f6f; stroke:none;" d="M200.667 278.333C200.222 278.778 201.278 278.722 201.333 278.667C201.778 278.222 200.722 278.278 200.667 278.333z"/>
<path style="fill:#9e9e9e; stroke:none;" d="M229 278C229.307 280.123 229.382 280.686 231 282C230.404 280.44 229.911 279.377 229 278z"/>
<path style="fill:#646464; stroke:none;" d="M292 278L293 279L292 278z"/>
<path style="fill:#d6d6d6; stroke:none;" d="M296 278L296 282C296.71 280.24 296.71 279.76 296 278z"/>
<path style="fill:#b6b6b6; stroke:none;" d="M307 278L308 279L307 278z"/>
<path style="fill:#757575; stroke:none;" d="M318 278L319 279L318 278z"/>
<path style="fill:#bbbbbb; stroke:none;" d="M338 278L338 282C338.71 280.24 338.71 279.76 338 278z"/>
<path style="fill:#d1d1d1; stroke:none;" d="M349 278L350 279L349 278z"/>
<path style="fill:#cfcfcf; stroke:none;" d="M157 279L158 280L157 279z"/>
<path style="fill:#e0e0e0; stroke:none;" d="M188.667 279.333C188.222 279.778 189.278 279.722 189.333 279.667C189.778 279.222 188.722 279.278 188.667 279.333z"/>
<path style="fill:#cbcbcb; stroke:none;" d="M203 279L204 280L203 279z"/>
<path style="fill:#b8b8b8; stroke:none;" d="M212 279L212 282C212.696 280.446 212.696 280.554 212 279z"/>
<path style="fill:#d0d0d0; stroke:none;" d="M216 279L217 280L216 279z"/>
<path style="fill:#5e5e5e; stroke:none;" d="M223.333 279.667C223.278 279.722 223.222 280.778 223.667 280.333C223.722 280.278 223.778 279.222 223.333 279.667z"/>
<path style="fill:#747474; stroke:none;" d="M233 279L234 280L233 279z"/>
<path style="fill:#c9c9c9; stroke:none;" d="M236 279L237 280L236 279z"/>
<path style="fill:#adadad; stroke:none;" d="M239 279L240 280L239 279z"/>
<path style="fill:#7c7c7c; stroke:none;" d="M248 279L249 280L248 279z"/>
<path style="fill:#a6a6a6; stroke:none;" d="M277 279L278 280L277 279z"/>
<path style="fill:#a0a0a0; stroke:none;" d="M280 279L281 280L280 279z"/>
<path style="fill:#cacaca; stroke:none;" d="M291 279L292 280L291 279z"/>
<path style="fill:#8e8e8e; stroke:none;" d="M306 279L307 280L306 279z"/>
<path style="fill:#6e6e6e; stroke:none;" d="M317 279L318 280L317 279z"/>
<path style="fill:#686868; stroke:none;" d="M329 279L330 280L329 279z"/>
<path style="fill:#cccccc; stroke:none;" d="M341 279L342 280L341 279z"/>
<path style="fill:#656565; stroke:none;" d="M342 279L343 280L342 279z"/>
<path style="fill:#686868; stroke:none;" d="M349 279L350 280L349 279z"/>
<path style="fill:#737373; stroke:none;" d="M157 280L158 281L157 280z"/>
<path style="fill:#909090; stroke:none;" d="M187 280L188 281L187 280z"/>
<path style="fill:#848484; stroke:none;" d="M199 280L200 281L199 280z"/>
<path style="fill:#ffffff; stroke:none;" d="M200 280L199 284C200.656 282.596 200.751 282.046 200 280z"/>
<path style="fill:#cbcbcb; stroke:none;" d="M231 280L232 281L231 280z"/>
<path style="fill:#838383; stroke:none;" d="M236 280L236 283C236.696 281.446 236.696 281.554 236 280z"/>
<path style="fill:#797979; stroke:none;" d="M257 280L258 281L257 280z"/>
<path style="fill:#4e4e4e; stroke:none;" d="M264 280L264 288C265.161 285.23 265.161 282.77 264 280z"/>
<path style="fill:#929292; stroke:none;" d="M287 280L288 281L287 280z"/>
<path style="fill:#737373; stroke:none;" d="M291 280L292 281L291 280z"/>
<path style="fill:#bcbcbc; stroke:none;" d="M329 280L330 281L329 280z"/>
<path style="fill:#d9d9d9; stroke:none;" d="M331.333 280.667C331.278 280.722 331.222 281.778 331.667 281.333C331.722 281.278 331.778 280.222 331.333 280.667z"/>
<path style="fill:#bababa; stroke:none;" d="M340 280L341 281L340 280z"/>
<path style="fill:#898989; stroke:none;" d="M345.333 280.667C345.278 280.722 345.222 281.778 345.667 281.333C345.722 281.278 345.778 280.222 345.333 280.667z"/>
<path style="fill:#cdcdcd; stroke:none;" d="M348 280L349 281L348 280z"/>
<path style="fill:#dddddd; stroke:none;" d="M357 280L358 281L357 280z"/>
<path style="fill:#afafaf; stroke:none;" d="M358.667 280.333C358.222 280.778 359.278 280.722 359.333 280.667C359.778 280.222 358.722 280.278 358.667 280.333z"/>
<path style="fill:#b7b7b7; stroke:none;" d="M147 281L147 286C147.83 283.969 147.83 283.03 147 281z"/>
<path style="fill:#939393; stroke:none;" d="M166 281L167 282L166 281z"/>
<path style="fill:#e1e1e1; stroke:none;" d="M170.667 281.333C170.222 281.778 171.278 281.722 171.333 281.667C171.778 281.222 170.722 281.278 170.667 281.333z"/>
<path style="fill:#b5b5b5; stroke:none;" d="M180 281L181 282L180 281z"/>
<path style="fill:#5a5a5a; stroke:none;" d="M183.333 281.667C183.278 281.722 183.222 282.778 183.667 282.333C183.722 282.278 183.778 281.222 183.333 281.667z"/>
<path style="fill:#5f5f5f; stroke:none;" d="M186 281L187 282L186 281z"/>
<path style="fill:#989898; stroke:none;" d="M190.333 281.667C190.278 281.722 190.222 282.778 190.667 282.333C190.722 282.278 190.778 281.222 190.333 281.667z"/>
<path style="fill:#959595; stroke:none;" d="M201.333 281.667C201.278 281.722 201.222 282.778 201.667 282.333C201.722 282.278 201.778 281.222 201.333 281.667z"/>
<path style="fill:#e3e3e3; stroke:none;" d="M205.333 281.667C205.278 281.722 205.222 282.778 205.667 282.333C205.722 282.278 205.778 281.222 205.333 281.667z"/>
<path style="fill:#b3b3b3; stroke:none;" d="M215 281L216 282L215 281z"/>
<path style="fill:#afafaf; stroke:none;" d="M246 281L247 282L246 281z"/>
<path style="fill:#b9b9b9; stroke:none;" d="M257 281L258 282L257 281z"/>
<path style="fill:#6c6c6c; stroke:none;" d="M276 281L277 282L276 281z"/>
<path style="fill:#767676; stroke:none;" d="M305 281L306 282L305 281z"/>
<path style="fill:#8b8b8b; stroke:none;" d="M339 281L340 282L339 281z"/>
<path style="fill:#eaeaea; stroke:none;" d="M356 281L357 282L356 281z"/>
<path style="fill:#808080; stroke:none;" d="M357 281L358 282L357 281z"/>
<path style="fill:#e0e0e0; stroke:none;" d="M360.333 281.667C360.278 281.722 360.222 282.778 360.667 282.333C360.722 282.278 360.778 281.222 360.333 281.667z"/>
<path style="fill:#848484; stroke:none;" d="M156 282L157 283L156 282z"/>
<path style="fill:#828282; stroke:none;" d="M165.333 282.667C165.278 282.722 165.222 283.778 165.667 283.333C165.722 283.278 165.778 282.222 165.333 282.667z"/>
<path style="fill:#ffffff; stroke:none;" d="M166 282L166 284L168 284C167.455 282.365 167.635 282.545 166 282z"/>
<path style="fill:#a9a9a9; stroke:none;" d="M167 282L168 283L167 282z"/>
<path style="fill:#535353; stroke:none;" d="M170.667 282.333C170.222 282.778 171.278 282.722 171.333 282.667C171.778 282.222 170.722 282.278 170.667 282.333z"/>
<path style="fill:#747474; stroke:none;" d="M179 282L180 283L179 282z"/>
<path style="fill:#676767; stroke:none;" d="M181 282L182 283L181 282z"/>
<path style="fill:#b3b3b3; stroke:none;" d="M184 282L185 283L184 282z"/>
<path style="fill:#a6a6a6; stroke:none;" d="M198.333 282.667C198.278 282.722 198.222 283.778 198.667 283.333C198.722 283.278 198.778 282.222 198.333 282.667z"/>
<path style="fill:#6b6b6b; stroke:none;" d="M232 282L233 285C233.685 283.751 233.749 283.452 234 282L232 282z"/>
<path style="fill:#6f6f6f; stroke:none;" d="M238 282L238 285C238.696 283.446 238.696 283.554 238 282z"/>
<path style="fill:#c1c1c1; stroke:none;" d="M274 282L275 283L274 282z"/>
<path style="fill:#aeaeae; stroke:none;" d="M279 282L280 283L279 282z"/>
<path style="fill:#ffffff; stroke:none;" d="M296 282L295 287C296.879 285.377 296.916 284.3 296 282z"/>
<path style="fill:#787878; stroke:none;" d="M328 282L329 283L328 282z"/>
<path style="fill:#b2b2b2; stroke:none;" d="M331.333 282.667C331.278 282.722 331.222 283.778 331.667 283.333C331.722 283.278 331.778 282.222 331.333 282.667z"/>
<path style="fill:#8e8e8e; stroke:none;" d="M341 282L342 283L341 282z"/>
<path style="fill:#aaaaaa; stroke:none;" d="M347 282L347 286C347.71 284.24 347.71 283.76 347 282z"/>
<path style="fill:#636363; stroke:none;" d="M354 282L355 283L354 282z"/>
<path style="fill:#d8d8d8; stroke:none;" d="M355 282C354.043 283.517 353.613 284.339 353 286C354.63 284.485 355.163 284.145 355 282z"/>
<path style="fill:#adadad; stroke:none;" d="M356 282L357 283L356 282z"/>
<path style="fill:#b9b9b9; stroke:none;" d="M154 283L155 284L154 283z"/>
<path style="fill:#545454; stroke:none;" d="M155.333 283.667C155.278 283.722 155.222 284.778 155.667 284.333C155.722 284.278 155.778 283.222 155.333 283.667z"/>
<path style="fill:#a1a1a1; stroke:none;" d="M181 283L182 284L181 283z"/>
<path style="fill:#969696; stroke:none;" d="M186.667 283.333C186.222 283.778 187.278 283.722 187.333 283.667C187.778 283.222 186.722 283.278 186.667 283.333z"/>
<path style="fill:#fafafa; stroke:none;" d="M190 283L190 288C190.83 285.969 190.83 285.031 190 283z"/>
<path style="fill:#bdbdbd; stroke:none;" d="M214 283L215 284L214 283z"/>
<path style="fill:#9d9d9d; stroke:none;" d="M220.333 283.667C220.278 283.722 220.222 284.778 220.667 284.333C220.722 284.278 220.778 283.222 220.333 283.667z"/>
<path style="fill:#c3c3c3; stroke:none;" d="M236 283L237 284L236 283z"/>
<path style="fill:#8a8a8a; stroke:none;" d="M256 283L257 284L256 283z"/>
<path style="fill:#c2c2c2; stroke:none;" d="M271 283L272 284L271 283z"/>
<path style="fill:#676767; stroke:none;" d="M272 283L273 284L272 283z"/>
<path style="fill:#999999; stroke:none;" d="M278 283L279 284L278 283z"/>
<path style="fill:#767676; stroke:none;" d="M281 283L282 284L281 283z"/>
<path style="fill:#939393; stroke:none;" d="M286 283L286 286C286.696 284.446 286.696 284.554 286 283z"/>
<path style="fill:#c6c6c6; stroke:none;" d="M289 283L290 284L289 283z"/>
<path style="fill:#7b7b7b; stroke:none;" d="M304 283L305 284L304 283z"/>
<path style="fill:#c9c9c9; stroke:none;" d="M316 283L317 284L316 283z"/>
<path style="fill:#adadad; stroke:none;" d="M328 283L329 284L328 283z"/>
<path style="fill:#868686; stroke:none;" d="M153 284L154 285L153 284z"/>
<path style="fill:#3b3b3b; stroke:none;" d="M154 284C152.814 285.186 152.472 285.584 152 287C153.994 286.153 154.699 285.993 154 284z"/>
<path style="fill:#656565; stroke:none;" d="M164 284L165 285L164 284z"/>
<path style="fill:#9a9a9a; stroke:none;" d="M170 284C170.545 285.635 170.365 285.455 172 286L172 284L170 284z"/>
<path style="fill:#8d8d8d; stroke:none;" d="M178 284L179 285L178 284z"/>
<path style="fill:#b1b1b1; stroke:none;" d="M183.667 284.333C183.222 284.778 184.278 284.722 184.333 284.667C184.778 284.222 183.722 284.278 183.667 284.333z"/>
<path style="fill:#4f4f4f; stroke:none;" d="M199 284L199 286L201 286C200.455 284.365 200.635 284.545 199 284z"/>
<path style="fill:#c1c1c1; stroke:none;" d="M202 284L203 285L202 284z"/>
<path style="fill:#a3a3a3; stroke:none;" d="M211.333 284.667C211.278 284.722 211.222 285.778 211.667 285.333C211.722 285.278 211.778 284.222 211.333 284.667z"/>
<path style="fill:#555555; stroke:none;" d="M212 288L217 285C214.284 284.279 213.236 285.629 212 288z"/>
<path style="fill:#a6a6a6; stroke:none;" d="M222 284L223 285L222 284M231 284L232 285L231 284z"/>
<path style="fill:#8e8e8e; stroke:none;" d="M244 284C244.307 286.123 244.382 286.686 246 288C245.404 286.44 244.911 285.377 244 284z"/>
<path style="fill:#5f5f5f; stroke:none;" d="M249.333 284.667C249.278 284.722 249.222 285.778 249.667 285.333C249.722 285.278 249.778 284.222 249.333 284.667z"/>
<path style="fill:#b1b1b1; stroke:none;" d="M277 284L278 285L277 284z"/>
<path style="fill:#cecece; stroke:none;" d="M281.333 284.667C281.278 284.722 281.222 285.778 281.667 285.333C281.722 285.278 281.778 284.222 281.333 284.667z"/>
<path style="fill:#676767; stroke:none;" d="M289 284L290 285L289 284z"/>
<path style="fill:#c1c1c1; stroke:none;" d="M304 284L305 285L304 284z"/>
<path style="fill:#b2b2b2; stroke:none;" d="M310 284L310 290C310.951 287.715 310.951 286.285 310 284z"/>
<path style="fill:#969696; stroke:none;" d="M317 284L318 285L317 284z"/>
<path style="fill:#808080; stroke:none;" d="M320 284L321 285L320 284z"/>
<path style="fill:#b1b1b1; stroke:none;" d="M322 284L323 285L322 284z"/>
<path style="fill:#b7b7b7; stroke:none;" d="M330 284L331 285L330 284z"/>
<path style="fill:#898989; stroke:none;" d="M344.333 284.667C344.278 284.722 344.222 285.778 344.667 285.333C344.722 285.278 344.778 284.222 344.333 284.667z"/>
<path style="fill:#7e7e7e; stroke:none;" d="M152 285L153 286L152 285z"/>
<path style="fill:#c8c8c8; stroke:none;" d="M155 285L156 286L155 285z"/>
<path style="fill:#9f9f9f; stroke:none;" d="M163 285L164 286L163 285z"/>
<path style="fill:#ffffff; stroke:none;" d="M163 288C164.949 287.064 165.55 286.608 167 285C164.703 285.674 164.226 285.965 163 288z"/>
<path style="fill:#595959; stroke:none;" d="M167 285L167 287C168.635 286.455 168.455 286.635 169 285L167 285z"/>
<path style="fill:#9b9b9b; stroke:none;" d="M213 285L214 286L213 285z"/>
<path style="fill:#949494; stroke:none;" d="M215.667 285.333C215.222 285.778 216.278 285.722 216.333 285.667C216.778 285.222 215.722 285.278 215.667 285.333z"/>
<path style="fill:#e6e6e6; stroke:none;" d="M220 285L220 287L222 287C221.455 285.365 221.635 285.545 220 285z"/>
<path style="fill:#727272; stroke:none;" d="M222 285L223 286L222 285z"/>
<path style="fill:#5f5f5f; stroke:none;" d="M230 285L231 286L230 285z"/>
<path style="fill:#7c7c7c; stroke:none;" d="M235 285L236 286L235 285z"/>
<path style="fill:#9a9a9a; stroke:none;" d="M238 285L239 286L238 285z"/>
<path style="fill:#909090; stroke:none;" d="M270 285L271 286L270 285z"/>
<path style="fill:#cfcfcf; stroke:none;" d="M271 285L272 286L271 285z"/>
<path style="fill:#9d9d9d; stroke:none;" d="M272.667 285.333C272.222 285.778 273.278 285.722 273.333 285.667C273.778 285.222 272.722 285.278 272.667 285.333z"/>
<path style="fill:#8b8b8b; stroke:none;" d="M288 285L289 286L288 285z"/>
<path style="fill:#363636; stroke:none;" d="M289 285L290 286L289 285z"/>
<path style="fill:#8d8d8d; stroke:none;" d="M290.667 285.333C290.222 285.778 291.278 285.722 291.333 285.667C291.778 285.222 290.722 285.278 290.667 285.333z"/>
<path style="fill:#a2a2a2; stroke:none;" d="M314 285L315 286L314 285z"/>
<path style="fill:#a1a1a1; stroke:none;" d="M318 285L319 286L318 285z"/>
<path style="fill:#676767; stroke:none;" d="M322 285L322 288C322.696 286.446 322.696 286.554 322 285z"/>
<path style="fill:#c8c8c8; stroke:none;" d="M327.333 285.667C327.278 285.722 327.222 286.778 327.667 286.333C327.722 286.278 327.778 285.222 327.333 285.667z"/>
<path style="fill:#878787; stroke:none;" d="M329 285L330 286L329 285z"/>
<path style="fill:#818181; stroke:none;" d="M339 285L340 286L339 285z"/>
<path style="fill:#cecece; stroke:none;" d="M341 285L341 288C341.696 286.446 341.696 286.554 341 285z"/>
<path style="fill:#7b7b7b; stroke:none;" d="M352.333 285.667C352.278 285.722 352.222 286.778 352.667 286.333C352.722 286.278 352.778 285.222 352.333 285.667z"/>
<path style="fill:#919191; stroke:none;" d="M359 285L359 289C359.71 287.24 359.71 286.759 359 285z"/>
<path style="fill:#868686; stroke:none;" d="M147 286L148 287L147 286z"/>
<path style="fill:#7c7c7c; stroke:none;" d="M151 286L152 287L151 286z"/>
<path style="fill:#c7c7c7; stroke:none;" d="M154 286L155 287L154 286z"/>
<path style="fill:#a7a7a7; stroke:none;" d="M156 286L157 287L156 286z"/>
<path style="fill:#838383; stroke:none;" d="M166 286L167 287L166 286z"/>
<path style="fill:#626262; stroke:none;" d="M176 286L177 287L176 286z"/>
<path style="fill:#8e8e8e; stroke:none;" d="M189.333 286.667C189.278 286.722 189.222 287.778 189.667 287.333C189.722 287.278 189.778 286.222 189.333 286.667z"/>
<path style="fill:#818181; stroke:none;" d="M198 286L199 287L198 286z"/>
<path style="fill:#727272; stroke:none;" d="M207 286L208 287L207 286z"/>
<path style="fill:#626262; stroke:none;" d="M238.333 286.667C238.278 286.722 238.222 287.778 238.667 287.333C238.722 287.278 238.778 286.222 238.333 286.667z"/>
<path style="fill:#686868; stroke:none;" d="M282 286L283 287L282 286z"/>
<path style="fill:#505050; stroke:none;" d="M287 288L290 287C288.222 286.045 287.979 286.234 287 288z"/>
<path style="fill:#cdcdcd; stroke:none;" d="M291 286L292 287L291 286z"/>
<path style="fill:#d2d2d2; stroke:none;" d="M303 286L304 287L303 286z"/>
<path style="fill:#9e9e9e; stroke:none;" d="M320 286L321 287L320 286z"/>
<path style="fill:#3e3e3e; stroke:none;" d="M328.667 286.333C328.222 286.778 329.278 286.722 329.333 286.667C329.778 286.222 328.722 286.278 328.667 286.333z"/>
<path style="fill:#cacaca; stroke:none;" d="M330 286L331 287L330 286z"/>
<path style="fill:#707070; stroke:none;" d="M331 286L332 287L331 286M338 286L339 287L338 286z"/>
<path style="fill:#d1d1d1; stroke:none;" d="M344 286L345 287L344 286z"/>
<path style="fill:#cacaca; stroke:none;" d="M346 286L347 287L346 286z"/>
<path style="fill:#c5c5c5; stroke:none;" d="M141 287L142 288L141 287z"/>
<path style="fill:#d3d3d3; stroke:none;" d="M148.667 287.333C148.222 287.778 149.278 287.722 149.333 287.667C149.778 287.222 148.722 287.278 148.667 287.333z"/>
<path style="fill:#828282; stroke:none;" d="M150 287L151 288L150 287z"/>
<path style="fill:#5c5c5c; stroke:none;" d="M151 287L151 289C152.635 288.455 152.455 288.635 153 287L151 287z"/>
<path style="fill:#9e9e9e; stroke:none;" d="M162 287L163 288L162 287z"/>
<path style="fill:#7f7f7f; stroke:none;" d="M165.333 287.667C165.278 287.722 165.222 288.778 165.667 288.333C165.722 288.278 165.778 287.222 165.333 287.667z"/>
<path style="fill:#454545; stroke:none;" d="M166 287L167 288L166 287z"/>
<path style="fill:#bcbcbc; stroke:none;" d="M167 287L168 288L167 287z"/>
<path style="fill:#dddddd; stroke:none;" d="M173 287C174.248 287.685 174.549 287.749 176 288C174.752 287.315 174.452 287.251 173 287z"/>
<path style="fill:#797979; stroke:none;" d="M208 287L209 288L208 287z"/>
<path style="fill:#8e8e8e; stroke:none;" d="M213 287L214 288L213 287z"/>
<path style="fill:#6b6b6b; stroke:none;" d="M222 287L223 288L222 287z"/>
<path style="fill:#606060; stroke:none;" d="M228 287L229 288L228 287z"/>
<path style="fill:#828282; stroke:none;" d="M235.667 287.333C235.222 287.778 236.278 287.722 236.333 287.667C236.778 287.222 235.722 287.278 235.667 287.333z"/>
<path style="fill:#9b9b9b; stroke:none;" d="M239 287L240 288L239 287z"/>
<path style="fill:#c7c7c7; stroke:none;" d="M248 287L249 288L248 287z"/>
<path style="fill:#b0b0b0; stroke:none;" d="M269 287L270 288L269 287z"/>
<path style="fill:#848484; stroke:none;" d="M283 287L284 288L283 287z"/>
<path style="fill:#888888; stroke:none;" d="M288 287L289 288L288 287z"/>
<path style="fill:#a4a4a4; stroke:none;" d="M302 287L303 288L302 287z"/>
<path style="fill:#6d6d6d; stroke:none;" d="M328 287L329 288L328 287z"/>
<path style="fill:#b1b1b1; stroke:none;" d="M331 287L332 288L331 287z"/>
<path style="fill:#737373; stroke:none;" d="M337 287L338 288L337 287z"/>
<path style="fill:#7c7c7c; stroke:none;" d="M344.667 287.333C344.222 287.778 345.278 287.722 345.333 287.667C345.778 287.222 344.722 287.278 344.667 287.333z"/>
<path style="fill:#8a8a8a; stroke:none;" d="M356 287L357 288L356 287z"/>
<path style="fill:#919191; stroke:none;" d="M143 288L144 289L143 288z"/>
<path style="fill:#d2d2d2; stroke:none;" d="M187 288L188 289L187 288z"/>
<path style="fill:#5f5f5f; stroke:none;" d="M190 288L191 289L190 288z"/>
<path style="fill:#a1a1a1; stroke:none;" d="M217 288L218 289L217 288z"/>
<path style="fill:#999999; stroke:none;" d="M221 288L222 289L221 288z"/>
<path style="fill:#b1b1b1; stroke:none;" d="M223 288L224 289L223 288z"/>
<path style="fill:#b5b5b5; stroke:none;" d="M227 288L228 289L227 288z"/>
<path style="fill:#707070; stroke:none;" d="M233 288L234 289L233 288z"/>
<path style="fill:#8c8c8c; stroke:none;" d="M237 288L238 289L237 288z"/>
<path style="fill:#d3d3d3; stroke:none;" d="M256.667 288.333C256.222 288.778 257.278 288.722 257.333 288.667C257.778 288.222 256.722 288.278 256.667 288.333z"/>
<path style="fill:#505050; stroke:none;" d="M258 288L259 289L258 288z"/>
<path style="fill:#696969; stroke:none;" d="M268 288L269 289L268 288z"/>
<path style="fill:#9d9d9d; stroke:none;" d="M296 288L297 289L296 288z"/>
<path style="fill:#939393; stroke:none;" d="M313 288L314 289L313 288z"/>
<path style="fill:#cecece; stroke:none;" d="M327 288L328 289L327 288z"/>
<path style="fill:#909090; stroke:none;" d="M332 288L333 289L332 288z"/>
<path style="fill:#cbcbcb; stroke:none;" d="M336 288L337 289L336 288z"/>
<path style="fill:#aeaeae; stroke:none;" d="M346 288L347 289L346 288z"/>
<path style="fill:#7b7b7b; stroke:none;" d="M354 288L355 289L354 288z"/>
<path style="fill:#7e7e7e; stroke:none;" d="M357 288L358 289L357 288z"/>
<path style="fill:#dcdcdc; stroke:none;" d="M361 288C361.545 289.635 361.365 289.455 363 290L363 288L361 288z"/>
<path style="fill:#b5b5b5; stroke:none;" d="M145 289C146.769 289.779 148.036 289.912 150 290C148.231 289.221 146.964 289.088 145 289z"/>
<path style="fill:#b4b4b4; stroke:none;" d="M159 289C160.769 289.779 162.036 289.912 164 290C162.231 289.221 160.964 289.088 159 289z"/>
<path style="fill:#949494; stroke:none;" d="M189 289L190 292C190.685 290.752 190.749 290.452 191 289L189 289z"/>
<path style="fill:#7c7c7c; stroke:none;" d="M197 289L197 292C197.696 290.446 197.696 290.554 197 289z"/>
<path style="fill:#b3b3b3; stroke:none;" d="M218.667 289.333C218.222 289.778 219.278 289.722 219.333 289.667C219.778 289.222 218.722 289.278 218.667 289.333M234.667 289.333C234.222 289.778 235.278 289.722 235.333 289.667C235.778 289.222 234.722 289.278 234.667 289.333z"/>
<path style="fill:#b2b2b2; stroke:none;" d="M242 289C243.506 289.683 244.315 289.826 246 290C244.494 289.317 243.685 289.174 242 289z"/>
<path style="fill:#a8a8a8; stroke:none;" d="M252 289L253 290L252 289z"/>
<path style="fill:#b4b4b4; stroke:none;" d="M293.667 289.333C293.222 289.778 294.278 289.722 294.333 289.667C294.778 289.222 293.722 289.278 293.667 289.333z"/>
<path style="fill:#b5b5b5; stroke:none;" d="M299.667 289.333C299.222 289.778 300.278 289.722 300.333 289.667C300.778 289.222 299.722 289.278 299.667 289.333z"/>
<path style="fill:#888888; stroke:none;" d="M312 289L313 290L312 289z"/>
<path style="fill:#bcbcbc; stroke:none;" d="M343.667 289.333C343.222 289.778 344.278 289.722 344.333 289.667C344.778 289.222 343.722 289.278 343.667 289.333z"/>
<path style="fill:#d4d4d4; stroke:none;" d="M350 289C351.506 289.683 352.315 289.826 354 290C352.494 289.317 351.685 289.174 350 289z"/>
<path style="fill:#c5c5c5; stroke:none;" d="M357 289L358 290L357 289z"/>
<path style="fill:#c9c9c9; stroke:none;" d="M253 290L254 291L253 290z"/>
<path style="fill:#5b5b5b; stroke:none;" d="M254 290C255.248 290.685 255.548 290.749 257 291C255.752 290.315 255.452 290.251 254 290z"/>
<path style="fill:#d3d3d3; stroke:none;" d="M257 290L258 291L257 290z"/>
<path style="fill:#a1a1a1; stroke:none;" d="M265 290L266 291L265 290z"/>
<path style="fill:#686868; stroke:none;" d="M266 290L267 291L266 290z"/>
<path style="fill:#757575; stroke:none;" d="M359.667 290.333C359.222 290.778 360.278 290.722 360.333 290.667C360.778 290.222 359.722 290.278 359.667 290.333z"/>
<path style="fill:#d3d3d3; stroke:none;" d="M361 290L362 291L361 290z"/>
<path style="fill:#a8a8a8; stroke:none;" d="M196 294L197 295L196 294z"/>
<path style="fill:#757575; stroke:none;" d="M190 297L191 298L190 297z"/>
<path style="fill:#b0b0b0; stroke:none;" d="M195 297L196 298L195 297z"/>
<path style="fill:#bdbdbd; stroke:none;" d="M191 298L192 299L191 298z"/>
<path style="fill:#5a5a5a; stroke:none;" d="M192.667 298.333C192.222 298.778 193.278 298.722 193.333 298.667C193.778 298.222 192.722 298.278 192.667 298.333z"/>
<path style="fill:#cfcfcf; stroke:none;" d="M194 298L195 299L194 298z"/>
<path style="fill:#b6b6b6; stroke:none;" d="M240.333 306.667C240.278 306.722 240.222 307.778 240.667 307.333C240.722 307.278 240.778 306.222 240.333 306.667z"/>
<path style="fill:#cecece; stroke:none;" d="M241 307L240 309L242 309C242 307.147 242.3 307.65 241 307z"/>
<path style="fill:#bebebe; stroke:none;" d="M158 308L159 309L158 308M163.333 308.667C163.278 308.722 163.222 309.778 163.667 309.333C163.722 309.278 163.778 308.222 163.333 308.667z"/>
<path style="fill:#6d6d6d; stroke:none;" d="M164 308L165 309L164 308z"/>
<path style="fill:#b7b7b7; stroke:none;" d="M168 308C169.769 308.779 171.036 308.912 173 309C171.231 308.221 169.964 308.088 168 308z"/>
<path style="fill:#c0c0c0; stroke:none;" d="M175 308L176 309L175 308z"/>
<path style="fill:#9c9c9c; stroke:none;" d="M180 308L179 310L181 310C181 308.147 181.3 308.65 180 308z"/>
<path style="fill:#b7b7b7; stroke:none;" d="M183 308C184.506 308.683 185.315 308.826 187 309C185.494 308.317 184.685 308.174 183 308z"/>
<path style="fill:#b6b6b6; stroke:none;" d="M192 308C193.769 308.779 195.036 308.912 197 309C195.231 308.221 193.964 308.088 192 308z"/>
<path style="fill:#b7b7b7; stroke:none;" d="M199 308C200.769 308.779 202.036 308.912 204 309C202.231 308.221 200.964 308.088 199 308M207 308C209.233 309.009 211.604 309.405 214 310C212.074 307.792 209.875 308.032 207 308z"/>
<path style="fill:#c1c1c1; stroke:none;" d="M216 308L217 309L216 308z"/>
<path style="fill:#adadad; stroke:none;" d="M221 308L222 310C223.635 309.455 223.455 309.635 224 308L221 308z"/>
<path style="fill:#b9b9b9; stroke:none;" d="M228 308C229.769 308.779 231.036 308.912 233 309C231.231 308.221 229.964 308.088 228 308z"/>
<path style="fill:#b1b1b1; stroke:none;" d="M248 308L248 310L250 310C249.455 308.365 249.635 308.545 248 308z"/>
<path style="fill:#cdcdcd; stroke:none;" d="M254.667 308.333C254.222 308.778 255.278 308.722 255.333 308.667C255.778 308.222 254.722 308.278 254.667 308.333z"/>
<path style="fill:#b3b3b3; stroke:none;" d="M259 308L260 310C261.635 309.455 261.455 309.635 262 308L259 308z"/>
<path style="fill:#e0e0e0; stroke:none;" d="M265.333 308.667C265.278 308.722 265.222 309.778 265.667 309.333C265.722 309.278 265.778 308.222 265.333 308.667z"/>
<path style="fill:#bababa; stroke:none;" d="M266 308C268.233 309.009 270.604 309.405 273 310C271.074 307.792 268.875 308.032 266 308M275 308C276.506 308.683 277.315 308.826 279 309C277.494 308.317 276.685 308.174 275 308z"/>
<path style="fill:#b9b9b9; stroke:none;" d="M283 308C284.941 308.951 286.898 309.439 289 310C287.266 307.997 285.645 308.077 283 308z"/>
<path style="fill:#b1b1b1; stroke:none;" d="M295 308C296.223 309.195 296.42 309.316 298 310C297.02 308.217 297.092 308.406 295 308z"/>
<path style="fill:#b6b6b6; stroke:none;" d="M302 308C303.941 308.951 305.898 309.439 308 310C306.266 307.997 304.645 308.077 302 308z"/>
<path style="fill:#b4b4b4; stroke:none;" d="M310 308C311.506 308.683 312.315 308.826 314 309C312.494 308.317 311.685 308.174 310 308z"/>
<path style="fill:#e5e5e5; stroke:none;" d="M323 308C323.545 309.635 323.365 309.455 325 310L325 308L323 308z"/>
<path style="fill:#bdbdbd; stroke:none;" d="M326 308L327 309L326 308z"/>
<path style="fill:#afafaf; stroke:none;" d="M332 308C333.223 309.195 333.42 309.316 335 310C334.02 308.217 334.092 308.406 332 308z"/>
<path style="fill:#b7b7b7; stroke:none;" d="M338 308C340.052 308.874 341.747 308.953 344 309C341.948 308.126 340.253 308.047 338 308z"/>
<path style="fill:#e0e0e0; stroke:none;" d="M157 309L157 318C158.256 315.006 158.256 311.994 157 309z"/>
<path style="fill:#464646; stroke:none;" d="M158 309L158 318C159.256 315.006 159.256 311.994 158 309z"/>
<path style="fill:#ededed; stroke:none;" d="M159 309L159 317C160.161 314.23 160.161 311.77 159 309z"/>
<path style="fill:#303030; stroke:none;" d="M164 309L165 310L164 309z"/>
<path style="fill:#9f9f9f; stroke:none;" d="M167 309L167 318C168.256 315.006 168.256 311.994 167 309z"/>
<path style="fill:#525252; stroke:none;" d="M168 309L169 310L168 309z"/>
<path style="fill:#848484; stroke:none;" d="M169 309C170.506 309.683 171.315 309.826 173 310C171.494 309.317 170.685 309.174 169 309z"/>
<path style="fill:#464646; stroke:none;" d="M175 309L176 310L175 309z"/>
<path style="fill:#4b4b4b; stroke:none;" d="M183 309L183 318C184.256 315.006 184.256 311.994 183 309z"/>
<path style="fill:#878787; stroke:none;" d="M184 309C185.248 309.685 185.548 309.749 187 310C185.752 309.315 185.452 309.251 184 309z"/>
<path style="fill:#4f4f4f; stroke:none;" d="M187 309L188 313C188.751 310.954 188.656 310.404 187 309z"/>
<path style="fill:#b0b0b0; stroke:none;" d="M191 309L191 318C192.256 315.006 192.256 311.994 191 309z"/>
<path style="fill:#696969; stroke:none;" d="M192 309L192 318C193.265 316.187 194.102 315.117 196 314C194.752 313.315 194.452 313.251 193 313C192.826 311.315 192.683 310.506 192 309z"/>
<path style="fill:#888888; stroke:none;" d="M193 309C194.506 309.683 195.315 309.826 197 310C195.494 309.317 194.685 309.174 193 309z"/>
<path style="fill:#7c7c7c; stroke:none;" d="M199 309L199 318C199.683 316.494 199.826 315.685 200 314L203 315C202.02 313.217 202.092 313.406 200 313L200 310L203 310C201.494 309.317 200.685 309.174 199 309z"/>
<path style="fill:#505050; stroke:none;" d="M203.667 309.333C203.222 309.778 204.278 309.722 204.333 309.667C204.778 309.222 203.722 309.278 203.667 309.333z"/>
<path style="fill:#8f8f8f; stroke:none;" d="M207 309C208.248 309.685 208.548 309.749 210 310C208.752 309.315 208.452 309.251 207 309z"/>
<path style="fill:#565656; stroke:none;" d="M210 309L210 318C211.256 315.006 211.256 311.994 210 309z"/>
<path style="fill:#8b8b8b; stroke:none;" d="M211.667 309.333C211.222 309.778 212.278 309.722 212.333 309.667C212.778 309.222 211.722 309.278 211.667 309.333z"/>
<path style="fill:#bebebe; stroke:none;" d="M215 309L215 318C216.256 315.006 216.256 311.994 215 309z"/>
<path style="fill:#4e4e4e; stroke:none;" d="M216 309L216 318C217.256 315.006 217.256 311.994 216 309z"/>
<path style="fill:#494949; stroke:none;" d="M220 309L221 310L220 309z"/>
<path style="fill:#7f7f7f; stroke:none;" d="M221 309L222 310L221 309z"/>
<path style="fill:#424242; stroke:none;" d="M223.667 309.333C223.222 309.778 224.278 309.722 224.333 309.667C224.778 309.222 223.722 309.278 223.667 309.333z"/>
<path style="fill:#cbcbcb; stroke:none;" d="M227 309L227 318C228.256 315.006 228.256 311.994 227 309z"/>
<path style="fill:#505050; stroke:none;" d="M228 309L229 310L228 309z"/>
<path style="fill:#8c8c8c; stroke:none;" d="M229 309C230.506 309.683 231.315 309.826 233 310C231.494 309.317 230.685 309.174 229 309z"/>
<path style="fill:#4b4b4b; stroke:none;" d="M240 309L240 311C241.635 310.455 241.455 310.635 242 309L240 309z"/>
<path style="fill:#919191; stroke:none;" d="M254.667 309.333C254.222 309.778 255.278 309.722 255.333 309.667C255.778 309.222 254.722 309.278 254.667 309.333z"/>
<path style="fill:#5e5e5e; stroke:none;" d="M258.667 309.333C258.222 309.778 259.278 309.722 259.333 309.667C259.778 309.222 258.722 309.278 258.667 309.333z"/>
<path style="fill:#7e7e7e; stroke:none;" d="M261 309L262 310L261 309z"/>
<path style="fill:#3d3d3d; stroke:none;" d="M262 309L263 310L262 309z"/>
<path style="fill:#929292; stroke:none;" d="M266 309C267.248 309.685 267.548 309.749 269 310C267.752 309.315 267.452 309.251 266 309z"/>
<path style="fill:#414141; stroke:none;" d="M269 309L269 318C270.256 315.006 270.256 311.994 269 309z"/>
<path style="fill:#909090; stroke:none;" d="M270.667 309.333C270.222 309.778 271.278 309.722 271.333 309.667C271.778 309.222 270.722 309.278 270.667 309.333z"/>
<path style="fill:#e9e9e9; stroke:none;" d="M274 309L274 318C275.256 315.006 275.256 311.994 274 309z"/>
<path style="fill:#6d6d6d; stroke:none;" d="M275 309L275 318C276.256 315.006 276.256 311.994 275 309z"/>
<path style="fill:#8b8b8b; stroke:none;" d="M276.667 309.333C276.222 309.778 277.278 309.722 277.333 309.667C277.778 309.222 276.722 309.278 276.667 309.333z"/>
<path style="fill:#414141; stroke:none;" d="M278.667 309.333C278.222 309.778 279.278 309.722 279.333 309.667C279.778 309.222 278.722 309.278 278.667 309.333z"/>
<path style="fill:#d3d3d3; stroke:none;" d="M280 309L281 310L280 309z"/>
<path style="fill:#7e7e7e; stroke:none;" d="M283 309C283.003 312.306 282.399 315.727 285 318L284 314L288 314C286.494 313.317 285.685 313.174 284 313L284 310L288 310C286.231 309.221 284.964 309.088 283 309z"/>
<path style="fill:#ababab; stroke:none;" d="M294 309L295 310L294 309z"/>
<path style="fill:#373737; stroke:none;" d="M295 309L296 310L295 309z"/>
<path style="fill:#3d3d3d; stroke:none;" d="M298 309L299 310L298 309z"/>
<path style="fill:#a9a9a9; stroke:none;" d="M299 309L300 310L299 309z"/>
<path style="fill:#373737; stroke:none;" d="M302 309L302 318C303.256 315.006 303.256 311.994 302 309z"/>
<path style="fill:#858585; stroke:none;" d="M303 309C304.506 309.683 305.315 309.826 307 310C305.494 309.317 304.685 309.174 303 309z"/>
<path style="fill:#4d4d4d; stroke:none;" d="M310 309L310 318C311.256 315.006 311.256 311.994 310 309z"/>
<path style="fill:#8d8d8d; stroke:none;" d="M311 309C312.248 309.685 312.548 309.749 314 310C312.752 309.315 312.452 309.251 311 309z"/>
<path style="fill:#3b3b3b; stroke:none;" d="M314 309L315 310L314 309z"/>
<path style="fill:#919191; stroke:none;" d="M315 309L316 310L315 309z"/>
<path style="fill:#8d8d8d; stroke:none;" d="M317.667 309.333C317.222 309.778 318.278 309.722 318.333 309.667C318.778 309.222 317.722 309.278 317.667 309.333z"/>
<path style="fill:#535353; stroke:none;" d="M323 309L323 312C323.696 310.446 323.696 310.554 323 309z"/>
<path style="fill:#3c3c3c; stroke:none;" d="M326 309L326 318C327.256 315.006 327.256 311.994 326 309z"/>
<path style="fill:#e2e2e2; stroke:none;" d="M327 309L327 318C328.256 315.006 328.256 311.994 327 309z"/>
<path style="fill:#727272; stroke:none;" d="M331 309L331 311C332.635 310.455 332.455 310.635 333 309L331 309z"/>
<path style="fill:#363636; stroke:none;" d="M335 309L336 310L335 309z"/>
<path style="fill:#818181; stroke:none;" d="M338 309L338 318L340 318C339.87 314.623 340.101 311.717 338 309z"/>
<path style="fill:#484848; stroke:none;" d="M339 309L340 310L339 309z"/>
<path style="fill:#868686; stroke:none;" d="M340 309C341.506 309.683 342.315 309.826 344 310C342.494 309.317 341.685 309.174 340 309z"/>
<path style="fill:#dedede; stroke:none;" d="M163.333 310.667C163.278 310.722 163.222 311.778 163.667 311.333C163.722 311.278 163.778 310.222 163.333 310.667z"/>
<path style="fill:#9c9c9c; stroke:none;" d="M164.333 310.667C164.278 310.722 164.222 311.778 164.667 311.333C164.722 311.278 164.778 310.222 164.333 310.667z"/>
<path style="fill:#838383; stroke:none;" d="M168 310L168 313C168.696 311.446 168.696 311.554 168 310z"/>
<path style="fill:#818181; stroke:none;" d="M175.667 310.333C175.222 310.778 176.278 310.722 176.333 310.667C176.778 310.222 175.722 310.278 175.667 310.333z"/>
<path style="fill:#505050; stroke:none;" d="M179 310L180 311L179 310z"/>
<path style="fill:#ffffff; stroke:none;" d="M184 310L184 313L188 313L188 310L184 310z"/>
<path style="fill:#cdcdcd; stroke:none;" d="M189 310L190 311L189 310z"/>
<path style="fill:#a6a6a6; stroke:none;" d="M200 310L200 313C200.696 311.446 200.696 311.554 200 310z"/>
<path style="fill:#ffffff; stroke:none;" d="M201 310L201 313L204 313L204 310L201 310z"/>
<path style="fill:#7f7f7f; stroke:none;" d="M204 310L204 314C205.267 312.457 205.489 311.952 206 310L204 310z"/>
<path style="fill:#8a8a8a; stroke:none;" d="M219 310L219 312L221 312L221 310L219 310z"/>
<path style="fill:#d2d2d2; stroke:none;" d="M224 310L225 311L224 310z"/>
<path style="fill:#898989; stroke:none;" d="M228 310L228 313C228.696 311.446 228.696 311.554 228 310z"/>
<path style="fill:#ababab; stroke:none;" d="M239.333 310.667C239.278 310.722 239.222 311.778 239.667 311.333C239.722 311.278 239.778 310.222 239.333 310.667z"/>
<path style="fill:#7f7f7f; stroke:none;" d="M241 310L242 311L241 310z"/>
<path style="fill:#b9b9b9; stroke:none;" d="M242 310L243 311L242 310z"/>
<path style="fill:#7e7e7e; stroke:none;" d="M249 310C249.406 312.092 249.217 312.02 251 313C250.309 311.612 250.015 311.139 249 310z"/>
<path style="fill:#616161; stroke:none;" d="M254.333 310.667C254.278 310.722 254.222 311.778 254.667 311.333C254.722 311.278 254.778 310.222 254.333 310.667z"/>
<path style="fill:#4f4f4f; stroke:none;" d="M257.333 310.667C257.278 310.722 257.222 311.778 257.667 311.333C257.722 311.278 257.778 310.222 257.333 310.667z"/>
<path style="fill:#a1a1a1; stroke:none;" d="M258 310L259 311L258 310z"/>
<path style="fill:#ffffff; stroke:none;" d="M259.549 311.175C257.365 312.579 258.869 317.485 261.451 315.825C263.634 314.421 262.131 309.515 259.549 311.175z"/>
<path style="fill:#c3c3c3; stroke:none;" d="M262 310L263 311L262 310z"/>
<path style="fill:#6a6a6a; stroke:none;" d="M263.333 310.667C263.278 310.722 263.222 311.778 263.667 311.333C263.722 311.278 263.778 310.222 263.333 310.667z"/>
<path style="fill:#c0c0c0; stroke:none;" d="M268 310L268 318C269.161 315.23 269.161 312.77 268 310z"/>
<path style="fill:#ffffff; stroke:none;" d="M276 313C278.297 312.326 278.774 312.035 280 310C277.261 310.211 276.578 310.303 276 313z"/>
<path style="fill:#404040; stroke:none;" d="M280.333 310.667C280.278 310.722 280.222 311.778 280.667 311.333C280.722 311.278 280.778 310.222 280.333 310.667z"/>
<path style="fill:#a1a1a1; stroke:none;" d="M284 310L284 313C284.696 311.446 284.696 311.554 284 310z"/>
<path style="fill:#3e3e3e; stroke:none;" d="M294.333 310.667C294.278 310.722 294.222 311.778 294.667 311.333C294.722 311.278 294.778 310.222 294.333 310.667z"/>
<path style="fill:#ffffff; stroke:none;" d="M311 310L311 313L315 313L315 310L311 310z"/>
<path style="fill:#646464; stroke:none;" d="M315 310L315 313C315.696 311.446 315.696 311.554 315 310z"/>
<path style="fill:#bebebe; stroke:none;" d="M317 310L318 311L317 310z"/>
<path style="fill:#464646; stroke:none;" d="M318.333 310.667C318.278 310.722 318.222 311.778 318.667 311.333C318.722 311.278 318.778 310.222 318.333 310.667z"/>
<path style="fill:#444444; stroke:none;" d="M330.333 310.667C330.278 310.722 330.222 311.778 330.667 311.333C330.722 311.278 330.778 310.222 330.333 310.667z"/>
<path style="fill:#e0e0e0; stroke:none;" d="M146 311C148.613 312.098 151.165 311.993 154 312C151.387 310.902 148.835 311.007 146 311z"/>
<path style="fill:#4c4c4c; stroke:none;" d="M176 311L177 312L176 311z"/>
<path style="fill:#8b8b8b; stroke:none;" d="M178.667 311.333C178.222 311.778 179.278 311.722 179.333 311.667C179.778 311.222 178.722 311.278 178.667 311.333z"/>
<path style="fill:#8e8e8e; stroke:none;" d="M189 311L190 312L189 311z"/>
<path style="fill:#cccccc; stroke:none;" d="M240.667 311.333C240.222 311.778 241.278 311.722 241.333 311.667C241.778 311.222 240.722 311.278 240.667 311.333z"/>
<path style="fill:#4b4b4b; stroke:none;" d="M242.333 311.667C242.278 311.722 242.222 312.778 242.667 312.333C242.722 312.278 242.778 311.222 242.333 311.667z"/>
<path style="fill:#c4c4c4; stroke:none;" d="M264 311L265 312L264 311z"/>
<path style="fill:#b3b3b3; stroke:none;" d="M322 311L323 312L322 311z"/>
<path style="fill:#e1e1e1; stroke:none;" d="M348 311C350.613 312.098 353.164 311.993 356 312C353.387 310.902 350.836 311.007 348 311z"/>
<path style="fill:#3b3b3b; stroke:none;" d="M146 312C148.613 313.098 151.165 312.993 154 313C151.387 311.902 148.835 312.007 146 312z"/>
<path style="fill:#adadad; stroke:none;" d="M176 312L177 313L176 312z"/>
<path style="fill:#5d5d5d; stroke:none;" d="M177 312L177 314C178.635 313.455 178.455 313.635 179 312L177 312z"/>
<path style="fill:#cacaca; stroke:none;" d="M189 312L190 313L189 312z"/>
<path style="fill:#696969; stroke:none;" d="M220 312C221.543 313.267 222.048 313.489 224 314C222.542 312.919 221.752 312.564 220 312z"/>
<path style="fill:#6b6b6b; stroke:none;" d="M239 312L238 317C239.318 315.074 239.651 314.234 239 312z"/>
<path style="fill:#ffffff; stroke:none;" d="M240 312L240 314L242 314L242 312L240 312z"/>
<path style="fill:#adadad; stroke:none;" d="M253 312C253.545 313.635 253.365 313.455 255 314L255 312L253 312z"/>
<path style="fill:#d3d3d3; stroke:none;" d="M256 312L257 313L256 312z"/>
<path style="fill:#848484; stroke:none;" d="M257 312C257.031 313.832 256.921 313.559 258 315C257.749 313.548 257.685 313.248 257 312z"/>
<path style="fill:#c5c5c5; stroke:none;" d="M263 312L263 315C263.696 313.446 263.696 313.554 263 312z"/>
<path style="fill:#7c7c7c; stroke:none;" d="M264 312L264 315C264.696 313.446 264.696 313.554 264 312z"/>
<path style="fill:#b1b1b1; stroke:none;" d="M279 312L280 313L279 312z"/>
<path style="fill:#6f6f6f; stroke:none;" d="M280 312L281 313L280 312z"/>
<path style="fill:#9f9f9f; stroke:none;" d="M294 312L295 313L294 312z"/>
<path style="fill:#474747; stroke:none;" d="M295 312L296 313L295 312z"/>
<path style="fill:#a8a8a8; stroke:none;" d="M296 312L297 313L296 312z"/>
<path style="fill:#828282; stroke:none;" d="M318 312L319 313L318 312z"/>
<path style="fill:#4c4c4c; stroke:none;" d="M322 312L322 315C322.696 313.446 322.696 313.554 322 312z"/>
<path style="fill:#b2b2b2; stroke:none;" d="M323 312L324 313L323 312z"/>
<path style="fill:#9c9c9c; stroke:none;" d="M329 312L329 315L331 315L331 312L329 312z"/>
<path style="fill:#3c3c3c; stroke:none;" d="M348 312C350.613 313.098 353.164 312.993 356 313C353.387 311.902 350.836 312.007 348 312z"/>
<path style="fill:#4a4a4a; stroke:none;" d="M168 313L169 314L168 313z"/>
<path style="fill:#747474; stroke:none;" d="M169 313C170.248 313.685 170.549 313.749 172 314C170.752 313.315 170.452 313.251 169 313z"/>
<path style="fill:#9a9a9a; stroke:none;" d="M178 313L179 314L178 313z"/>
<path style="fill:#a5a5a5; stroke:none;" d="M184 313C185.248 313.685 185.548 313.749 187 314C185.752 313.315 185.452 313.251 184 313z"/>
<path style="fill:#888888; stroke:none;" d="M187.667 313.333C187.222 313.778 188.278 313.722 188.333 313.667C188.778 313.222 187.722 313.278 187.667 313.333z"/>
<path style="fill:#525252; stroke:none;" d="M203 313L203 316C203.696 314.446 203.696 314.554 203 313z"/>
<path style="fill:#c7c7c7; stroke:none;" d="M224 313L225 314L224 313z"/>
<path style="fill:#474747; stroke:none;" d="M228 313L229 314L228 313z"/>
<path style="fill:#777777; stroke:none;" d="M229 313C230.248 313.685 230.548 313.749 232 314C230.752 313.315 230.452 313.251 229 313z"/>
<path style="fill:#929292; stroke:none;" d="M242 313L242 315L244 315C243.455 313.365 243.635 313.545 242 313z"/>
<path style="fill:#d4d4d4; stroke:none;" d="M243 313L244 314L243 313z"/>
<path style="fill:#494949; stroke:none;" d="M250.333 313.667C250.278 313.722 250.222 314.778 250.667 314.333C250.722 314.278 250.778 313.222 250.333 313.667z"/>
<path style="fill:#3c3c3c; stroke:none;" d="M253.333 313.667C253.278 313.722 253.222 314.778 253.667 314.333C253.722 314.278 253.778 313.222 253.333 313.667z"/>
<path style="fill:#8b8b8b; stroke:none;" d="M276.667 313.333C276.222 313.778 277.278 313.722 277.333 313.667C277.778 313.222 276.722 313.278 276.667 313.333z"/>
<path style="fill:#707070; stroke:none;" d="M278 313L278 315C279.635 314.455 279.455 314.635 280 313L278 313z"/>
<path style="fill:#b6b6b6; stroke:none;" d="M295 313L296 314L295 313z"/>
<path style="fill:#767676; stroke:none;" d="M296 313L297 314L296 313z"/>
<path style="fill:#464646; stroke:none;" d="M297 313L298 314L297 313z"/>
<path style="fill:#9b9b9b; stroke:none;" d="M298 313L299 314L298 313z"/>
<path style="fill:#787878; stroke:none;" d="M303 313C304.506 313.683 305.315 313.826 307 314C305.494 313.317 304.685 313.174 303 313z"/>
<path style="fill:#8a8a8a; stroke:none;" d="M311 313C312.248 313.685 312.548 313.749 314 314C312.752 313.315 312.452 313.251 311 313z"/>
<path style="fill:#5f5f5f; stroke:none;" d="M314 313L315 314L314 313z"/>
<path style="fill:#bdbdbd; stroke:none;" d="M315 313L316 314L315 313z"/>
<path style="fill:#717171; stroke:none;" d="M319 313L320 314L319 313z"/>
<path style="fill:#464646; stroke:none;" d="M339 313L340 314L339 313z"/>
<path style="fill:#777777; stroke:none;" d="M340 313C341.248 313.685 341.548 313.749 343 314C341.752 313.315 341.452 313.251 340 313z"/>
<path style="fill:#848484; stroke:none;" d="M168 314L168 317C168.696 315.446 168.696 315.554 168 314z"/>
<path style="fill:#bebebe; stroke:none;" d="M176.667 314.333C176.222 314.778 177.278 314.722 177.333 314.667C177.778 314.222 176.722 314.278 176.667 314.333z"/>
<path style="fill:#444444; stroke:none;" d="M178 314L179 315L178 314z"/>
<path style="fill:#cecece; stroke:none;" d="M184 314C185.248 314.685 185.548 314.749 187 315C185.752 314.315 185.452 314.251 184 314z"/>
<path style="fill:#a2a2a2; stroke:none;" d="M200 314L200 318C200.71 316.24 200.71 315.76 200 314z"/>
<path style="fill:#9d9d9d; stroke:none;" d="M223 314L224 315L223 314z"/>
<path style="fill:#3d3d3d; stroke:none;" d="M224 314L225 315L224 314z"/>
<path style="fill:#b4b4b4; stroke:none;" d="M225 314L225 317C225.696 315.446 225.696 315.554 225 314z"/>
<path style="fill:#898989; stroke:none;" d="M228 314L228 317C228.696 315.446 228.696 315.554 228 314z"/>
<path style="fill:#c1c1c1; stroke:none;" d="M239 315C240.506 315.683 241.315 315.826 243 316C241.19 314.76 241.223 314.816 239 315z"/>
<path style="fill:#e2e2e2; stroke:none;" d="M251.667 314.333C251.222 314.778 252.278 314.722 252.333 314.667C252.778 314.222 251.722 314.278 251.667 314.333z"/>
<path style="fill:#a5a5a5; stroke:none;" d="M284 314L284 317C284.696 315.446 284.696 315.554 284 314z"/>
<path style="fill:#4b4b4b; stroke:none;" d="M298 314L299 315L298 314z"/>
<path style="fill:#898989; stroke:none;" d="M299 314L300 315L299 314z"/>
<path style="fill:#434343; stroke:none;" d="M313 314L314 315L313 314z"/>
<path style="fill:#d4d4d4; stroke:none;" d="M314 314L315 315L314 314z"/>
<path style="fill:#464646; stroke:none;" d="M319.333 314.667C319.278 314.722 319.222 315.778 319.667 315.333C319.722 315.278 319.778 314.222 319.333 314.667z"/>
<path style="fill:#676767; stroke:none;" d="M176 315L177 316L176 315z"/>
<path style="fill:#7c7c7c; stroke:none;" d="M178 315C178.545 316.635 178.365 316.455 180 317L180 315L178 315z"/>
<path style="fill:#c8c8c8; stroke:none;" d="M204 315L205 316L204 315z"/>
<path style="fill:#5f5f5f; stroke:none;" d="M224.333 315.667C224.278 315.722 224.222 316.778 224.667 316.333C224.722 316.278 224.778 315.222 224.333 315.667z"/>
<path style="fill:#5c5c5c; stroke:none;" d="M243.333 315.667C243.278 315.722 243.222 316.778 243.667 316.333C243.722 316.278 243.778 315.222 243.333 315.667z"/>
<path style="fill:#c9c9c9; stroke:none;" d="M250 317L253 316C251.222 315.045 250.979 315.234 250 317z"/>
<path style="fill:#878787; stroke:none;" d="M253 315L254 316L253 315z"/>
<path style="fill:#444444; stroke:none;" d="M257 315L258 316L257 315z"/>
<path style="fill:#4c4c4c; stroke:none;" d="M263.333 315.667C263.278 315.722 263.222 316.778 263.667 316.333C263.722 316.278 263.778 315.222 263.333 315.667z"/>
<path style="fill:#898989; stroke:none;" d="M278.667 315.333C278.222 315.778 279.278 315.722 279.333 315.667C279.778 315.222 278.722 315.278 278.667 315.333z"/>
<path style="fill:#4c4c4c; stroke:none;" d="M299.333 315.667C299.278 315.722 299.222 316.778 299.667 316.333C299.722 316.278 299.778 315.222 299.333 315.667z"/>
<path style="fill:#c9c9c9; stroke:none;" d="M313 315L314 316L313 315z"/>
<path style="fill:#5f5f5f; stroke:none;" d="M314.333 315.667C314.278 315.722 314.222 316.778 314.667 316.333C314.722 316.278 314.778 315.222 314.333 315.667z"/>
<path style="fill:#8a8a8a; stroke:none;" d="M319 316C320.659 316.406 321.242 316.309 323 316C321.191 315.426 320.931 315.535 319 316z"/>
<path style="fill:#616161; stroke:none;" d="M330.333 315.667C330.278 315.722 330.222 316.778 330.667 316.333C330.722 316.278 330.778 315.222 330.333 315.667z"/>
<path style="fill:#4e4e4e; stroke:none;" d="M175.333 316.667C175.278 316.722 175.222 317.778 175.667 317.333C175.722 317.278 175.778 316.222 175.333 316.667z"/>
<path style="fill:#a6a6a6; stroke:none;" d="M176 316L177 317L176 316z"/>
<path style="fill:#626262; stroke:none;" d="M204.333 316.667C204.278 316.722 204.222 317.778 204.667 317.333C204.722 317.278 204.778 316.222 204.333 316.667z"/>
<path style="fill:#b6b6b6; stroke:none;" d="M219 316L220 317L219 316z"/>
<path style="fill:#848484; stroke:none;" d="M244.333 316.667C244.278 316.722 244.222 317.778 244.667 317.333C244.722 317.278 244.778 316.222 244.333 316.667z"/>
<path style="fill:#8c8c8c; stroke:none;" d="M251.667 316.333C251.222 316.778 252.278 316.722 252.333 316.667C252.778 316.222 251.722 316.278 251.667 316.333z"/>
<path style="fill:#9c9c9c; stroke:none;" d="M257.667 316.333C257.222 316.778 258.278 316.722 258.333 316.667C258.778 316.222 257.722 316.278 257.667 316.333z"/>
<path style="fill:#c1c1c1; stroke:none;" d="M262 316L263 317L262 316z"/>
<path style="fill:#464646; stroke:none;" d="M279 316L280 317L279 316z"/>
<path style="fill:#a0a0a0; stroke:none;" d="M315 316L316 317L315 316z"/>
<path style="fill:#4b4b4b; stroke:none;" d="M321 316L320 318L322 318C322 316.147 322.3 316.65 321 316z"/>
<path style="fill:#a4a4a4; stroke:none;" d="M331 316L332 317L331 316z"/>
<path style="fill:#9f9f9f; stroke:none;" d="M158 318C159.769 318.779 161.036 318.912 163 319L163 317C161.122 317.176 159.801 317.438 158 318z"/>
<path style="fill:#565656; stroke:none;" d="M168 317L169 318L168 317z"/>
<path style="fill:#9b9b9b; stroke:none;" d="M168 318C169.769 318.779 171.036 318.912 173 319L173 317C171.122 317.176 169.801 317.438 168 318z"/>
<path style="fill:#bdbdbd; stroke:none;" d="M179 317L180 318L179 317z"/>
<path style="fill:#6c6c6c; stroke:none;" d="M180 317L181 318L180 317z"/>
<path style="fill:#9f9f9f; stroke:none;" d="M192 318C193.769 318.779 195.036 318.912 197 319L197 317C195.122 317.176 193.801 317.438 192 318z"/>
<path style="fill:#b5b5b5; stroke:none;" d="M205.333 317.667C205.278 317.722 205.222 318.778 205.667 318.333C205.722 318.278 205.778 317.222 205.333 317.667z"/>
<path style="fill:#898989; stroke:none;" d="M219 317L220 318L219 317z"/>
<path style="fill:#3d3d3d; stroke:none;" d="M220 317L221 318L220 317z"/>
<path style="fill:#9f9f9f; stroke:none;" d="M221 317C221.98 318.783 221.908 318.594 224 319C222.777 317.805 222.58 317.684 221 317z"/>
<path style="fill:#454545; stroke:none;" d="M223.667 317.333C223.222 317.778 224.278 317.722 224.333 317.667C224.778 317.222 223.722 317.278 223.667 317.333z"/>
<path style="fill:#545454; stroke:none;" d="M228 317L229 318L228 317z"/>
<path style="fill:#a1a1a1; stroke:none;" d="M228 318C229.769 318.779 231.036 318.912 233 319L233 317C231.122 317.176 229.801 317.438 228 318z"/>
<path style="fill:#b6b6b6; stroke:none;" d="M237 317L237 319C238.635 318.455 238.455 318.635 239 317L237 317z"/>
<path style="fill:#b2b2b2; stroke:none;" d="M243 317L244 318L243 317z"/>
<path style="fill:#636363; stroke:none;" d="M251.667 317.333C251.222 317.778 252.278 317.722 252.333 317.667C252.778 317.222 251.722 317.278 251.667 317.333z"/>
<path style="fill:#6e6e6e; stroke:none;" d="M258.667 317.333C258.222 317.778 259.278 317.722 259.333 317.667C259.778 317.222 258.722 317.278 258.667 317.333z"/>
<path style="fill:#9e9e9e; stroke:none;" d="M259 319C261.092 318.594 261.02 318.783 262 317C260.42 317.684 260.223 317.805 259 319z"/>
<path style="fill:#393939; stroke:none;" d="M262 317L263 318L262 317z"/>
<path style="fill:#b5b5b5; stroke:none;" d="M279 317L280 318L279 317z"/>
<path style="fill:#6c6c6c; stroke:none;" d="M280 317L281 318L280 317z"/>
<path style="fill:#9e9e9e; stroke:none;" d="M283 318C285.052 318.874 286.747 318.953 289 319L289 317L283 318z"/>
<path style="fill:#515151; stroke:none;" d="M294.667 317.333C294.222 317.778 295.278 317.722 295.333 317.667C295.778 317.222 294.722 317.278 294.667 317.333z"/>
<path style="fill:#9c9c9c; stroke:none;" d="M295 319C297.092 318.594 297.02 318.783 298 317C296.42 317.684 296.223 317.805 295 319z"/>
<path style="fill:#3d3d3d; stroke:none;" d="M298 317L299 318L298 317z"/>
<path style="fill:#b4b4b4; stroke:none;" d="M299 317L300 318L299 317z"/>
<path style="fill:#a0a0a0; stroke:none;" d="M302 318C303.769 318.779 305.036 318.912 307 319L307 317C305.122 317.176 303.801 317.438 302 318z"/>
<path style="fill:#bfbfbf; stroke:none;" d="M307.333 317.667C307.278 317.722 307.222 318.778 307.667 318.333C307.722 318.278 307.778 317.222 307.333 317.667z"/>
<path style="fill:#434343; stroke:none;" d="M315 317L316 318L315 317z"/>
<path style="fill:#5a5a5a; stroke:none;" d="M331.667 317.333C331.222 317.778 332.278 317.722 332.333 317.667C332.778 317.222 331.722 317.278 331.667 317.333z"/>
<path style="fill:#a0a0a0; stroke:none;" d="M332 319C334.092 318.594 334.02 318.783 335 317C333.42 317.684 333.223 317.805 332 319z"/>
<path style="fill:#383838; stroke:none;" d="M335 317L336 318L335 317z"/>
<path style="fill:#9d9d9d; stroke:none;" d="M338 318C340.052 318.874 341.747 318.953 344 319L344 317L338 318z"/>
<path style="fill:#d3d3d3; stroke:none;" d="M167 318L168 319L167 318z"/>
<path style="fill:#dbdbdb; stroke:none;" d="M174.667 318.333C174.222 318.778 175.278 318.722 175.333 318.667C175.778 318.222 174.722 318.278 174.667 318.333z"/>
<path style="fill:#a5a5a5; stroke:none;" d="M180 318L181 319L180 318z"/>
<path style="fill:#aaaaaa; stroke:none;" d="M183 318L184 319L183 318z"/>
<path style="fill:#d1d1d1; stroke:none;" d="M199.667 318.333C199.222 318.778 200.278 318.722 200.333 318.667C200.778 318.222 199.722 318.278 199.667 318.333z"/>
<path style="fill:#b2b2b2; stroke:none;" d="M210 318L211 319L210 318z"/>
<path style="fill:#ababab; stroke:none;" d="M216 318L217 319L216 318z"/>
<path style="fill:#b4b4b4; stroke:none;" d="M244 318L245 319L244 318z"/>
<path style="fill:#c4c4c4; stroke:none;" d="M251.667 318.333C251.222 318.778 252.278 318.722 252.333 318.667C252.778 318.222 251.722 318.278 251.667 318.333z"/>
<path style="fill:#a6a6a6; stroke:none;" d="M269 318L270 319L269 318z"/>
<path style="fill:#b8b8b8; stroke:none;" d="M275 318L276 319L275 318z"/>
<path style="fill:#a5a5a5; stroke:none;" d="M280 318L281 319L280 318z"/>
<path style="fill:#acacac; stroke:none;" d="M310 318L311 319L310 318z"/>
<path style="fill:#b6b6b6; stroke:none;" d="M315 318L316 319L315 318z"/>
<path style="fill:#c0c0c0; stroke:none;" d="M320.667 318.333C320.222 318.778 321.278 318.722 321.333 318.667C321.778 318.222 320.722 318.278 320.667 318.333z"/>
<path style="fill:#a3a3a3; stroke:none;" d="M326 318L327 319L326 318z"/>
</svg>
